<svg xmlns="http://www.w3.org/2000/svg" xmlns:xlink="http://www.w3.org/1999/xlink" width="500" zoomAndPan="magnify" viewBox="0 0 375 374.999991" height="500" preserveAspectRatio="xMidYMid meet" version="1.2"><defs/><g id="31254dd137"><g style="fill:#1f28f0;fill-opacity:1;"><g transform="translate(51.521708, 199.685617)"><path style="stroke:none" d="M 2.265625 0 L 2.265625 -0.671875 C 3.066406 -0.929688 3.585938 -1.46875 3.828125 -2.28125 C 4.066406 -3.101562 4.1875 -4.378906 4.1875 -6.109375 L 4.1875 -27.5625 C 4.1875 -29.300781 4.066406 -30.578125 3.828125 -31.390625 C 3.585938 -32.210938 3.066406 -32.75 2.265625 -33 L 2.265625 -33.671875 L 25.5 -33.671875 L 25.828125 -28.34375 L 25.203125 -28.1875 C 24.304688 -29.882812 23.222656 -31.078125 21.953125 -31.765625 C 20.691406 -32.460938 18.875 -32.8125 16.5 -32.8125 L 9.28125 -32.8125 L 9.28125 -18.859375 L 13.1875 -18.859375 C 15.132812 -18.859375 16.671875 -18.984375 17.796875 -19.234375 C 18.921875 -19.492188 19.753906 -19.894531 20.296875 -20.4375 C 20.847656 -20.988281 21.25 -21.679688 21.5 -22.515625 L 22.171875 -22.515625 L 22.171875 -14.34375 L 21.5 -14.34375 C 21.25 -15.175781 20.847656 -15.863281 20.296875 -16.40625 C 19.753906 -16.945312 18.921875 -17.347656 17.796875 -17.609375 C 16.671875 -17.867188 15.132812 -18 13.1875 -18 L 9.28125 -18 L 9.28125 -6.109375 C 9.28125 -4.378906 9.398438 -3.101562 9.640625 -2.28125 C 9.878906 -1.46875 10.398438 -0.929688 11.203125 -0.671875 L 11.203125 0 Z M 2.265625 0 "/></g></g><g style="fill:#1f28f0;fill-opacity:1;"><g transform="translate(78.026367, 199.685617)"><path style="stroke:none" d="M 2.265625 0 L 2.265625 -0.671875 C 3.066406 -0.929688 3.585938 -1.46875 3.828125 -2.28125 C 4.066406 -3.101562 4.1875 -4.378906 4.1875 -6.109375 L 4.1875 -27.5625 C 4.1875 -29.300781 4.066406 -30.578125 3.828125 -31.390625 C 3.585938 -32.210938 3.066406 -32.75 2.265625 -33 L 2.265625 -33.671875 L 25.359375 -33.671875 L 25.875 -26.890625 L 25.25 -26.75 C 24.289062 -29.125 23 -30.742188 21.375 -31.609375 C 19.757812 -32.472656 17.601562 -32.90625 14.90625 -32.90625 L 9.28125 -32.90625 L 9.28125 -18.46875 L 13.90625 -18.46875 C 15.863281 -18.46875 17.398438 -18.597656 18.515625 -18.859375 C 19.640625 -19.117188 20.472656 -19.519531 21.015625 -20.0625 C 21.566406 -20.601562 21.96875 -21.289062 22.21875 -22.125 L 22.90625 -22.125 L 22.90625 -14.046875 L 22.21875 -14.046875 C 21.96875 -14.878906 21.566406 -15.566406 21.015625 -16.109375 C 20.472656 -16.660156 19.640625 -17.0625 18.515625 -17.3125 C 17.398438 -17.570312 15.863281 -17.703125 13.90625 -17.703125 L 9.28125 -17.703125 L 9.28125 -3.171875 C 9.28125 -1.566406 10.082031 -0.765625 11.6875 -0.765625 L 16.3125 -0.765625 C 18.75 -0.765625 20.800781 -1.210938 22.46875 -2.109375 C 24.132812 -3.015625 25.414062 -4.6875 26.3125 -7.125 L 26.9375 -7.03125 L 26.609375 0 Z M 2.265625 0 "/></g></g><g style="fill:#1f28f0;fill-opacity:1;"><g transform="translate(106.166528, 199.685617)"><path style="stroke:none" d="M 26.75 0.34375 C 25.4375 0.34375 24.382812 0.046875 23.59375 -0.546875 C 22.8125 -1.140625 22.125 -2.046875 21.53125 -3.265625 C 20.9375 -4.484375 20.253906 -6.023438 19.484375 -7.890625 C 18.773438 -9.648438 18.179688 -11.128906 17.703125 -12.328125 C 17.222656 -13.535156 16.757812 -14.5 16.3125 -15.21875 C 15.863281 -15.945312 15.316406 -16.46875 14.671875 -16.78125 C 14.035156 -17.101562 13.1875 -17.265625 12.125 -17.265625 L 9.28125 -17.265625 L 9.28125 -6.109375 C 9.28125 -4.378906 9.398438 -3.101562 9.640625 -2.28125 C 9.878906 -1.46875 10.398438 -0.929688 11.203125 -0.671875 L 11.203125 0 L 2.265625 0 L 2.265625 -0.671875 C 3.066406 -0.929688 3.585938 -1.46875 3.828125 -2.28125 C 4.066406 -3.101562 4.1875 -4.378906 4.1875 -6.109375 L 4.1875 -27.5625 C 4.1875 -29.300781 4.066406 -30.578125 3.828125 -31.390625 C 3.585938 -32.210938 3.066406 -32.75 2.265625 -33 L 2.265625 -33.671875 L 12.359375 -33.671875 C 14.992188 -33.671875 17.132812 -33.453125 18.78125 -33.015625 C 20.4375 -32.585938 21.710938 -32.015625 22.609375 -31.296875 C 23.503906 -30.578125 24.128906 -29.75 24.484375 -28.8125 C 24.835938 -27.882812 25.015625 -26.941406 25.015625 -25.984375 C 25.015625 -23.765625 24.242188 -21.882812 22.703125 -20.34375 C 21.160156 -18.8125 18.789062 -17.851562 15.59375 -17.46875 C 16.9375 -17.300781 18.046875 -17.023438 18.921875 -16.640625 C 19.804688 -16.253906 20.5625 -15.703125 21.1875 -14.984375 C 21.8125 -14.265625 22.378906 -13.347656 22.890625 -12.234375 C 23.410156 -11.128906 23.988281 -9.773438 24.625 -8.171875 C 25.5 -6.054688 26.175781 -4.453125 26.65625 -3.359375 C 27.132812 -2.273438 27.582031 -1.546875 28 -1.171875 C 28.414062 -0.804688 28.910156 -0.625 29.484375 -0.625 C 29.617188 -0.625 29.738281 -0.625 29.84375 -0.625 C 29.957031 -0.625 30.082031 -0.640625 30.21875 -0.671875 L 30.21875 0 C 29.664062 0.125 29.050781 0.210938 28.375 0.265625 C 27.707031 0.316406 27.164062 0.34375 26.75 0.34375 Z M 9.28125 -18.046875 L 12.359375 -18.046875 C 14.191406 -18.046875 15.660156 -18.347656 16.765625 -18.953125 C 17.867188 -19.566406 18.671875 -20.394531 19.171875 -21.4375 C 19.671875 -22.476562 19.921875 -23.609375 19.921875 -24.828125 C 19.921875 -26.140625 19.628906 -27.410156 19.046875 -28.640625 C 18.472656 -29.878906 17.5625 -30.898438 16.3125 -31.703125 C 15.0625 -32.503906 13.425781 -32.90625 11.40625 -32.90625 C 10.726562 -32.90625 10.019531 -32.859375 9.28125 -32.765625 Z M 9.28125 -18.046875 "/></g></g><g style="fill:#1f28f0;fill-opacity:1;"><g transform="translate(135.413056, 199.685617)"><path style="stroke:none" d="M 2.015625 0 L 2.015625 -0.671875 C 2.816406 -0.929688 3.335938 -1.46875 3.578125 -2.28125 C 3.816406 -3.101562 3.9375 -4.378906 3.9375 -6.109375 L 3.9375 -24.6875 C 3.9375 -26.632812 3.816406 -28.171875 3.578125 -29.296875 C 3.335938 -30.421875 2.976562 -31.253906 2.5 -31.796875 C 2.019531 -32.347656 1.410156 -32.75 0.671875 -33 L 0.671875 -33.671875 L 7.890625 -33.671875 L 19.765625 -13.953125 L 31.078125 -33.671875 L 37.90625 -33.671875 L 37.90625 -33 C 37.164062 -32.75 36.554688 -32.347656 36.078125 -31.796875 C 35.597656 -31.253906 35.238281 -30.421875 35 -29.296875 C 34.757812 -28.171875 34.640625 -26.632812 34.640625 -24.6875 L 34.640625 -6.109375 C 34.640625 -4.378906 34.757812 -3.101562 35 -2.28125 C 35.238281 -1.46875 35.757812 -0.929688 36.5625 -0.671875 L 36.5625 0 L 27.609375 0 L 27.609375 -0.671875 C 28.410156 -0.929688 28.929688 -1.46875 29.171875 -2.28125 C 29.421875 -3.101562 29.546875 -4.378906 29.546875 -6.109375 L 29.546875 -29.390625 L 18 -9.140625 L 16.890625 -9.140625 L 4.8125 -28.96875 L 4.8125 -9 C 4.8125 -7.039062 4.9375 -5.5 5.1875 -4.375 C 5.445312 -3.25 5.847656 -2.414062 6.390625 -1.875 C 6.941406 -1.332031 7.632812 -0.929688 8.46875 -0.671875 L 8.46875 0 Z M 2.015625 0 "/></g></g><g style="fill:#1f28f0;fill-opacity:1;"><g transform="translate(175.097941, 199.685617)"><path style="stroke:none" d="M 2.265625 0 L 2.265625 -0.671875 C 3.066406 -0.929688 3.585938 -1.46875 3.828125 -2.28125 C 4.066406 -3.101562 4.1875 -4.378906 4.1875 -6.109375 L 4.1875 -27.5625 C 4.1875 -29.300781 4.066406 -30.578125 3.828125 -31.390625 C 3.585938 -32.210938 3.066406 -32.75 2.265625 -33 L 2.265625 -33.671875 L 25.359375 -33.671875 L 25.875 -26.890625 L 25.25 -26.75 C 24.289062 -29.125 23 -30.742188 21.375 -31.609375 C 19.757812 -32.472656 17.601562 -32.90625 14.90625 -32.90625 L 9.28125 -32.90625 L 9.28125 -18.46875 L 13.90625 -18.46875 C 15.863281 -18.46875 17.398438 -18.597656 18.515625 -18.859375 C 19.640625 -19.117188 20.472656 -19.519531 21.015625 -20.0625 C 21.566406 -20.601562 21.96875 -21.289062 22.21875 -22.125 L 22.90625 -22.125 L 22.90625 -14.046875 L 22.21875 -14.046875 C 21.96875 -14.878906 21.566406 -15.566406 21.015625 -16.109375 C 20.472656 -16.660156 19.640625 -17.0625 18.515625 -17.3125 C 17.398438 -17.570312 15.863281 -17.703125 13.90625 -17.703125 L 9.28125 -17.703125 L 9.28125 -3.171875 C 9.28125 -1.566406 10.082031 -0.765625 11.6875 -0.765625 L 16.3125 -0.765625 C 18.75 -0.765625 20.800781 -1.210938 22.46875 -2.109375 C 24.132812 -3.015625 25.414062 -4.6875 26.3125 -7.125 L 26.9375 -7.03125 L 26.609375 0 Z M 2.265625 0 "/></g></g><g style="fill:#1f28f0;fill-opacity:1;"><g transform="translate(203.238102, 199.685617)"><path style="stroke:none" d="M 13.765625 0.484375 C 11.296875 0.484375 9 0.140625 6.875 -0.546875 C 4.757812 -1.242188 3.09375 -2.039062 1.875 -2.9375 L 1.6875 -10.15625 L 2.3125 -10.25 C 2.976562 -8.414062 3.894531 -6.769531 5.0625 -5.3125 C 6.238281 -3.851562 7.660156 -2.691406 9.328125 -1.828125 C 10.992188 -0.960938 12.890625 -0.53125 15.015625 -0.53125 C 16.128906 -0.53125 17.164062 -0.757812 18.125 -1.21875 C 19.09375 -1.6875 19.878906 -2.367188 20.484375 -3.265625 C 21.097656 -4.171875 21.40625 -5.28125 21.40625 -6.59375 C 21.40625 -7.78125 21.066406 -8.8125 20.390625 -9.6875 C 19.722656 -10.570312 18.867188 -11.34375 17.828125 -12 C 16.785156 -12.65625 15.6875 -13.234375 14.53125 -13.734375 C 13.375 -14.234375 12.316406 -14.675781 11.359375 -15.0625 C 9.722656 -15.757812 8.210938 -16.460938 6.828125 -17.171875 C 5.453125 -17.878906 4.347656 -18.785156 3.515625 -19.890625 C 2.679688 -20.992188 2.265625 -22.476562 2.265625 -24.34375 C 2.265625 -27.320312 3.378906 -29.675781 5.609375 -31.40625 C 7.835938 -33.144531 10.84375 -34.015625 14.625 -34.015625 C 16.414062 -34.015625 18.085938 -33.835938 19.640625 -33.484375 C 21.203125 -33.128906 22.609375 -32.632812 23.859375 -32 L 24.046875 -25.734375 L 23.53125 -25.546875 C 22.53125 -28.015625 21.078125 -29.90625 19.171875 -31.21875 C 17.265625 -32.539062 15.140625 -33.203125 12.796875 -33.203125 C 10.867188 -33.203125 9.238281 -32.660156 7.90625 -31.578125 C 6.582031 -30.503906 5.921875 -29.023438 5.921875 -27.140625 C 5.921875 -26.078125 6.179688 -25.148438 6.703125 -24.359375 C 7.234375 -23.578125 7.941406 -22.894531 8.828125 -22.3125 C 9.710938 -21.738281 10.660156 -21.234375 11.671875 -20.796875 C 12.679688 -20.367188 13.664062 -19.960938 14.625 -19.578125 C 15.84375 -19.097656 17.082031 -18.582031 18.34375 -18.03125 C 19.613281 -17.488281 20.773438 -16.847656 21.828125 -16.109375 C 22.890625 -15.378906 23.742188 -14.5 24.390625 -13.46875 C 25.035156 -12.445312 25.359375 -11.210938 25.359375 -9.765625 C 25.359375 -8.128906 25.019531 -6.671875 24.34375 -5.390625 C 23.664062 -4.109375 22.765625 -3.03125 21.640625 -2.15625 C 20.523438 -1.289062 19.273438 -0.632812 17.890625 -0.1875 C 16.515625 0.257812 15.140625 0.484375 13.765625 0.484375 Z M 13.765625 0.484375 "/></g></g><g style="fill:#1f28f0;fill-opacity:1;"><g transform="translate(229.35794, 199.685617)"><path style="stroke:none" d="M 8.859375 0 L 8.859375 -0.671875 C 9.660156 -0.929688 10.179688 -1.46875 10.421875 -2.28125 C 10.660156 -3.101562 10.78125 -4.378906 10.78125 -6.109375 L 10.734375 -15.4375 L 3.609375 -28.34375 C 2.804688 -29.84375 2.023438 -30.929688 1.265625 -31.609375 C 0.515625 -32.285156 -0.128906 -32.75 -0.671875 -33 L -0.671875 -33.671875 L 8.328125 -33.671875 L 8.328125 -33 C 7.523438 -32.75 7.289062 -32.285156 7.625 -31.609375 C 7.957031 -30.929688 8.539062 -29.84375 9.375 -28.34375 L 15.734375 -16.890625 L 22.21875 -28.34375 C 23.0625 -29.84375 23.429688 -30.945312 23.328125 -31.65625 C 23.234375 -32.363281 22.691406 -32.8125 21.703125 -33 L 21.703125 -33.671875 L 27.90625 -33.671875 L 27.90625 -33 C 27.195312 -32.75 26.441406 -32.285156 25.640625 -31.609375 C 24.835938 -30.929688 24.019531 -29.84375 23.1875 -28.34375 L 15.921875 -15.390625 L 15.921875 -6.109375 C 15.921875 -4.378906 16.039062 -3.101562 16.28125 -2.28125 C 16.519531 -1.46875 17.039062 -0.929688 17.84375 -0.671875 L 17.84375 0 Z M 8.859375 0 "/></g></g><g style="fill:#1f28f0;fill-opacity:1;"><g transform="translate(255.958812, 199.685617)"><path style="stroke:none" d="M 27.609375 0.390625 L 5.046875 -28.09375 L 5.046875 -9 C 5.046875 -7.039062 5.175781 -5.5 5.4375 -4.375 C 5.695312 -3.25 6.097656 -2.414062 6.640625 -1.875 C 7.179688 -1.332031 7.867188 -0.929688 8.703125 -0.671875 L 8.703125 0 L 2.265625 0 L 2.265625 -0.671875 C 3.066406 -0.929688 3.585938 -1.46875 3.828125 -2.28125 C 4.066406 -3.101562 4.1875 -4.378906 4.1875 -6.109375 L 4.1875 -27.5625 C 4.1875 -29.300781 4.023438 -30.578125 3.703125 -31.390625 C 3.378906 -32.210938 2.707031 -32.75 1.6875 -33 L 1.6875 -33.671875 L 7.125 -33.671875 L 27.328125 -8.375 L 27.328125 -24.6875 C 27.328125 -26.632812 27.195312 -28.171875 26.9375 -29.296875 C 26.6875 -30.421875 26.285156 -31.253906 25.734375 -31.796875 C 25.191406 -32.347656 24.503906 -32.75 23.671875 -33 L 23.671875 -33.671875 L 30.171875 -33.671875 L 30.171875 -33 C 29.367188 -32.75 28.84375 -32.210938 28.59375 -31.390625 C 28.351562 -30.578125 28.234375 -29.300781 28.234375 -27.5625 L 28.234375 0.390625 Z M 27.609375 0.390625 "/></g></g><g style="fill:#1f28f0;fill-opacity:1;"><g transform="translate(287.321877, 199.685617)"><path style="stroke:none" d="M 21.171875 0.484375 C 17.347656 0.484375 14.039062 -0.164062 11.25 -1.46875 C 8.46875 -2.769531 6.328125 -4.660156 4.828125 -7.140625 C 3.335938 -9.628906 2.59375 -12.671875 2.59375 -16.265625 C 2.59375 -18.703125 3.050781 -20.984375 3.96875 -23.109375 C 4.882812 -25.242188 6.195312 -27.128906 7.90625 -28.765625 C 9.625 -30.398438 11.675781 -31.679688 14.0625 -32.609375 C 16.457031 -33.546875 19.128906 -34.015625 22.078125 -34.015625 C 23.265625 -34.015625 24.554688 -33.929688 25.953125 -33.765625 C 27.347656 -33.609375 28.675781 -33.359375 29.9375 -33.015625 C 31.207031 -32.679688 32.257812 -32.226562 33.09375 -31.65625 L 33.296875 -25.3125 L 32.71875 -25.15625 C 32.070312 -26.820312 31.125 -28.238281 29.875 -29.40625 C 28.625 -30.582031 27.21875 -31.488281 25.65625 -32.125 C 24.101562 -32.769531 22.492188 -33.09375 20.828125 -33.09375 C 18.265625 -33.09375 15.992188 -32.53125 14.015625 -31.40625 C 12.046875 -30.289062 10.5 -28.648438 9.375 -26.484375 C 8.257812 -24.316406 7.703125 -21.628906 7.703125 -18.421875 C 7.703125 -16.117188 8.035156 -13.890625 8.703125 -11.734375 C 9.378906 -9.585938 10.347656 -7.671875 11.609375 -5.984375 C 12.878906 -4.304688 14.4375 -2.976562 16.28125 -2 C 18.125 -1.019531 20.21875 -0.53125 22.5625 -0.53125 C 25.257812 -0.53125 27.519531 -1.28125 29.34375 -2.78125 C 31.175781 -4.289062 32.523438 -6.296875 33.390625 -8.796875 L 34.015625 -8.703125 L 33.25 -1.828125 C 31.957031 -1.253906 30.359375 -0.722656 28.453125 -0.234375 C 26.546875 0.242188 24.117188 0.484375 21.171875 0.484375 Z M 21.171875 0.484375 "/></g></g></g></svg>