<svg xmlns="http://www.w3.org/2000/svg" xmlns:xlink="http://www.w3.org/1999/xlink" width="500" zoomAndPan="magnify" viewBox="0 0 375 374.999991" height="500" preserveAspectRatio="xMidYMid meet" version="1.2"><defs><clipPath id="f32785e318"><path d="M 42.628906 86.515625 L 332 86.515625 L 332 288.265625 L 42.628906 288.265625 Z M 42.628906 86.515625 "/></clipPath></defs><g id="e2225839e8"><g clip-rule="nonzero" clip-path="url(#f32785e318)"><path style=" stroke:none;fill-rule:nonzero;fill:#1f28f0;fill-opacity:1;" d="M 253.101562 278.699219 L 241.042969 278.699219 C 236.328125 268.523438 225.972656 261.671875 214.769531 261.671875 C 213.328125 261.671875 211.894531 261.792969 210.480469 262.046875 C 205.445312 255.382812 198.996094 251.113281 192.046875 249.800781 L 192.046875 203.847656 C 194.902344 204.367188 197.769531 204.636719 200.625 204.636719 C 213.113281 204.636719 225.308594 199.734375 234.371094 190.671875 C 246.582031 178.464844 251.242188 160.554688 246.523438 143.925781 C 246.078125 142.335938 244.832031 141.089844 243.238281 140.640625 C 226.605469 135.933594 208.691406 140.578125 196.496094 152.773438 C 194.875 154.394531 193.394531 156.113281 192.046875 157.910156 L 192.046875 148.085938 C 201.882812 141.527344 207.882812 130.425781 207.882812 118.488281 C 207.882812 105.582031 200.875 93.664062 189.609375 87.382812 C 188.167969 86.582031 186.410156 86.582031 184.964844 87.390625 C 173.6875 93.683594 166.691406 105.589844 166.691406 118.488281 C 166.691406 130.414062 172.695312 141.515625 182.519531 148.085938 L 182.519531 182.019531 C 182.007812 181.441406 181.488281 180.875 180.9375 180.324219 C 171.214844 170.609375 156.949219 166.898438 143.699219 170.648438 C 142.121094 171.105469 140.871094 172.339844 140.417969 173.933594 C 136.667969 187.183594 140.371094 201.445312 150.09375 211.167969 C 157.3125 218.378906 167.019531 222.289062 176.945312 222.289062 C 178.796875 222.289062 180.667969 222.148438 182.519531 221.871094 L 182.519531 249.800781 C 175.578125 251.113281 169.128906 255.382812 164.105469 262.046875 C 162.683594 261.792969 161.25 261.671875 159.808594 261.671875 C 148.613281 261.671875 138.257812 268.523438 133.53125 278.699219 L 121.84375 278.699219 C 119.210938 278.699219 117.082031 280.839844 117.082031 283.464844 C 117.082031 286.097656 119.210938 288.226562 121.84375 288.226562 L 253.101562 288.226562 C 255.726562 288.226562 257.867188 286.097656 257.867188 283.464844 C 257.867188 280.839844 255.726562 278.699219 253.101562 278.699219 Z M 203.230469 159.511719 C 212.347656 150.390625 225.460938 146.550781 238 149.164062 C 240.617188 161.699219 236.765625 174.808594 227.636719 183.933594 C 218.507812 193.0625 205.398438 196.914062 192.855469 194.308594 C 190.25 181.757812 194.101562 168.636719 203.230469 159.511719 Z M 176.21875 118.488281 C 176.21875 109.964844 180.398438 102.019531 187.292969 97.171875 C 194.175781 102.019531 198.355469 109.957031 198.355469 118.488281 C 198.355469 127.019531 194.175781 134.957031 187.292969 139.804688 C 180.398438 134.957031 176.21875 127.011719 176.21875 118.488281 Z M 182.0625 212.296875 C 172.9375 213.96875 163.472656 211.074219 156.828125 204.421875 C 150.195312 197.796875 147.300781 188.335938 148.96875 179.199219 C 158.105469 177.535156 167.566406 180.4375 174.199219 187.0625 C 179.558594 192.410156 182.472656 199.605469 182.519531 206.972656 L 182.519531 207.316406 C 182.511719 208.972656 182.359375 210.640625 182.0625 212.296875 Z M 159.808594 271.203125 C 161.445312 271.203125 163.074219 271.460938 164.65625 271.992188 C 166.738281 272.671875 169.019531 271.863281 170.179688 270.011719 C 174.636719 262.9375 180.796875 258.890625 187.097656 258.890625 C 187.164062 258.890625 187.21875 258.890625 187.28125 258.890625 C 187.347656 258.890625 187.414062 258.890625 187.476562 258.890625 C 193.769531 258.890625 199.9375 262.9375 204.414062 270.011719 C 205.574219 271.863281 207.855469 272.671875 209.929688 271.992188 C 211.511719 271.460938 213.140625 271.203125 214.769531 271.203125 C 219.914062 271.203125 225.933594 273.761719 229.90625 278.699219 L 144.667969 278.699219 C 148.652344 273.761719 154.660156 271.203125 159.808594 271.203125 Z M 102.601562 208.21875 C 108.128906 221.441406 116.738281 233.332031 127.96875 242.839844 C 128.859375 243.605469 129.949219 243.976562 131.039062 243.976562 C 132.394531 243.976562 133.734375 243.398438 134.675781 242.292969 C 136.378906 240.28125 136.128906 237.277344 134.125 235.574219 C 115.640625 219.90625 105.03125 197.046875 105.03125 172.835938 C 105.03125 148.632812 115.640625 125.792969 134.125 110.121094 C 136.128906 108.421875 136.378906 105.414062 134.675781 103.40625 C 132.972656 101.394531 129.96875 101.152344 127.96875 102.855469 C 116.746094 112.367188 108.140625 124.246094 102.613281 137.460938 L 90.785156 137.460938 L 81.074219 120.628906 C 83.242188 118.105469 84.5625 114.832031 84.5625 111.25 C 84.5625 103.304688 78.105469 96.84375 70.160156 96.84375 C 62.222656 96.84375 55.753906 103.304688 55.753906 111.25 C 55.753906 119.183594 62.222656 125.652344 70.160156 125.652344 C 71.070312 125.652344 71.953125 125.558594 72.820312 125.402344 L 83.910156 144.605469 C 84.757812 146.074219 86.328125 146.988281 88.03125 146.988281 L 99.226562 146.988281 C 97.226562 153.796875 96.007812 160.871094 95.632812 168.070312 L 70.53125 168.070312 C 68.558594 162.46875 63.21875 158.441406 56.945312 158.441406 C 48.992188 158.441406 42.523438 164.898438 42.523438 172.835938 C 42.523438 180.78125 48.992188 187.238281 56.945312 187.238281 C 63.21875 187.238281 68.558594 183.210938 70.53125 177.597656 L 95.632812 177.597656 C 96.007812 184.808594 97.226562 191.882812 99.226562 198.691406 L 88.03125 198.691406 C 86.328125 198.691406 84.757812 199.605469 83.910156 201.074219 L 72.820312 220.277344 C 71.953125 220.121094 71.070312 220.027344 70.160156 220.027344 C 62.222656 220.027344 55.753906 226.492188 55.753906 234.429688 C 55.753906 242.375 62.222656 248.832031 70.160156 248.832031 C 78.09375 248.832031 84.5625 242.375 84.5625 234.429688 C 84.5625 230.847656 83.242188 227.574219 81.074219 225.050781 L 90.785156 208.21875 Z M 65.285156 111.25 C 65.285156 108.558594 67.46875 106.375 70.160156 106.375 C 72.847656 106.375 75.035156 108.558594 75.035156 111.25 C 75.035156 113.9375 72.847656 116.125 70.160156 116.125 C 67.46875 116.125 65.285156 113.9375 65.285156 111.25 Z M 56.945312 177.710938 C 54.25 177.710938 52.050781 175.523438 52.050781 172.84375 C 52.050781 170.15625 54.25 167.96875 56.945312 167.96875 C 59.644531 167.96875 61.820312 170.15625 61.820312 172.84375 C 61.820312 175.523438 59.636719 177.710938 56.945312 177.710938 Z M 70.160156 239.304688 C 67.46875 239.304688 65.285156 237.121094 65.285156 234.429688 C 65.285156 231.742188 67.46875 229.554688 70.160156 229.554688 C 72.847656 229.554688 75.035156 231.742188 75.035156 234.429688 C 75.035156 237.121094 72.847656 239.304688 70.160156 239.304688 Z M 303.941406 177.609375 C 305.914062 183.210938 311.253906 187.238281 317.527344 187.238281 C 325.472656 187.238281 331.929688 180.78125 331.929688 172.84375 C 331.929688 164.898438 325.472656 158.441406 317.527344 158.441406 C 311.253906 158.441406 305.914062 162.46875 303.941406 168.082031 L 278.839844 168.082031 C 278.464844 160.871094 277.238281 153.796875 275.238281 146.988281 L 286.421875 146.988281 C 288.125 146.988281 289.695312 146.074219 290.542969 144.605469 L 301.632812 125.390625 C 302.5 125.558594 303.394531 125.652344 304.3125 125.652344 C 312.25 125.652344 318.71875 119.183594 318.71875 111.25 C 318.71875 103.304688 312.25 96.84375 304.3125 96.84375 C 296.367188 96.84375 289.910156 103.304688 289.910156 111.25 C 289.910156 114.820312 291.222656 118.097656 293.390625 120.617188 L 283.667969 137.460938 L 271.859375 137.460938 C 266.332031 124.246094 257.726562 112.367188 246.503906 102.855469 C 244.496094 101.152344 241.492188 101.394531 239.796875 103.40625 C 238.09375 105.414062 238.335938 108.421875 240.347656 110.121094 C 258.835938 125.792969 269.433594 148.644531 269.433594 172.835938 C 269.433594 197.027344 258.835938 219.90625 240.347656 235.574219 C 238.335938 237.277344 238.09375 240.28125 239.796875 242.292969 C 240.738281 243.398438 242.078125 243.976562 243.425781 243.976562 C 244.515625 243.976562 245.613281 243.605469 246.503906 242.839844 C 257.726562 233.332031 266.34375 221.441406 271.871094 208.21875 L 283.667969 208.21875 L 293.390625 225.0625 C 291.222656 227.582031 289.910156 230.855469 289.910156 234.429688 C 289.910156 242.375 296.367188 248.832031 304.3125 248.832031 C 312.25 248.832031 318.71875 242.375 318.71875 234.429688 C 318.71875 226.492188 312.25 220.027344 304.3125 220.027344 C 303.394531 220.027344 302.5 220.121094 301.632812 220.289062 L 290.542969 201.074219 C 289.695312 199.605469 288.125 198.691406 286.421875 198.691406 L 275.246094 198.691406 C 277.238281 191.882812 278.464844 184.808594 278.839844 177.597656 L 303.941406 177.597656 Z M 304.3125 106.375 C 307.003906 106.375 309.191406 108.558594 309.191406 111.25 C 309.191406 113.9375 307.003906 116.125 304.3125 116.125 C 301.625 116.125 299.4375 113.9375 299.4375 111.25 C 299.4375 108.558594 301.625 106.375 304.3125 106.375 Z M 309.191406 234.429688 C 309.191406 237.121094 307.003906 239.304688 304.3125 239.304688 C 301.625 239.304688 299.4375 237.121094 299.4375 234.429688 C 299.4375 231.742188 301.625 229.554688 304.3125 229.554688 C 307.003906 229.554688 309.191406 231.742188 309.191406 234.429688 Z M 317.527344 167.96875 C 320.214844 167.96875 322.402344 170.15625 322.402344 172.84375 C 322.402344 175.523438 320.214844 177.710938 317.527344 177.710938 C 314.835938 177.710938 312.652344 175.523438 312.652344 172.84375 C 312.652344 170.15625 314.835938 167.96875 317.527344 167.96875 Z M 317.527344 167.96875 "/></g></g></svg>