<?xml version="1.0" encoding="UTF-8" standalone="no"?>
<svg
   width="446.84738"
   zoomAndPan="magnify"
   viewBox="0 0 335.13554 62.156741"
   height="82.875656"
   preserveAspectRatio="xMidYMid"
   version="1.2"
   id="svg20"
   sodipodi:docname="HorizontalLogoAndText.svg"
   inkscape:version="1.4.2 (f4327f4, 2025-05-13)"
   xmlns:inkscape="http://www.inkscape.org/namespaces/inkscape"
   xmlns:sodipodi="http://sodipodi.sourceforge.net/DTD/sodipodi-0.dtd"
   xmlns="http://www.w3.org/2000/svg"
   xmlns:svg="http://www.w3.org/2000/svg">
  <sodipodi:namedview
     id="namedview20"
     pagecolor="#ffffff"
     bordercolor="#000000"
     borderopacity="0.25"
     inkscape:showpageshadow="2"
     inkscape:pageopacity="0.0"
     inkscape:pagecheckerboard="0"
     inkscape:deskcolor="#d1d1d1"
     inkscape:zoom="1.614"
     inkscape:cx="227.07559"
     inkscape:cy="57.930607"
     inkscape:window-width="1920"
     inkscape:window-height="1009"
     inkscape:window-x="-8"
     inkscape:window-y="-8"
     inkscape:window-maximized="1"
     inkscape:current-layer="svg20" />
  <defs
     id="defs1">
    <clipPath
       id="af77f81b95">
      <path
         d="m 16.992188,144.17578 h 90.000002 v 62.25 H 16.992188 Z m 0,0"
         id="path1" />
    </clipPath>
  </defs>
  <g
     id="ed579d9270"
     transform="translate(-16.992188,-144.25732)">
    <g
       clip-rule="nonzero"
       clip-path="url(#af77f81b95)"
       id="g2">
      <path
         style="fill:#1f28f0;fill-opacity:1;fill-rule:nonzero;stroke:none"
         d="m 81.933594,203.47266 h -3.722656 c -1.457032,-3.14063 -4.652344,-5.25 -8.105469,-5.25 -0.445313,0 -0.890625,0.0352 -1.324219,0.11328 -1.554688,-2.05469 -3.542969,-3.375 -5.6875,-3.77735 v -14.17968 c 0.878906,0.16015 1.765625,0.24218 2.644531,0.24218 3.855469,0 7.617188,-1.51172 10.414063,-4.30859 3.765625,-3.76563 5.207031,-9.29297 3.75,-14.42188 -0.136719,-0.49218 -0.523438,-0.875 -1.011719,-1.01562 -5.136719,-1.45313 -10.660156,-0.0195 -14.425781,3.74609 -0.5,0.5 -0.957032,1.03125 -1.371094,1.58203 v -3.03125 c 3.035156,-2.02343 4.886719,-5.44921 4.886719,-9.13281 0,-3.98047 -2.164063,-7.65625 -5.640625,-9.59765 -0.445313,-0.2461 -0.988282,-0.2461 -1.429688,0.004 -3.480468,1.94141 -5.640625,5.61719 -5.640625,9.59375 0,3.6836 1.851563,7.10547 4.882813,9.13281 v 10.47266 c -0.15625,-0.17969 -0.316406,-0.35547 -0.488282,-0.52344 -3,-2.99609 -7.398437,-4.14453 -11.488281,-2.98437 -0.488281,0.14062 -0.871093,0.51953 -1.011719,1.01172 -1.160156,4.08984 -0.01562,8.48828 2.984376,11.48828 2.226562,2.22656 5.222656,3.42969 8.285156,3.42969 0.570312,0 1.148437,-0.043 1.71875,-0.12891 v 8.62109 c -2.140625,0.40235 -4.128906,1.72266 -5.679688,3.77735 -0.441406,-0.0781 -0.882812,-0.11328 -1.328125,-0.11328 -3.453125,0 -6.648437,2.10937 -8.105469,5.25 h -3.605468 c -0.8125,0 -1.472656,0.66406 -1.472656,1.47265 0,0.8125 0.660156,1.46875 1.472656,1.46875 h 40.5 c 0.808594,0 1.46875,-0.65625 1.46875,-1.46875 0,-0.80859 -0.660156,-1.47265 -1.46875,-1.47265 z M 66.542969,166.69922 c 2.816406,-2.8125 6.859375,-4 10.730469,-3.19141 0.804687,3.86719 -0.382813,7.91016 -3.199219,10.72656 -2.816407,2.81641 -6.859375,4.00391 -10.730469,3.20313 -0.804688,-3.875 0.382812,-7.92188 3.199219,-10.73828 z m -8.332031,-12.66016 c 0,-2.6289 1.289062,-5.07812 3.414062,-6.57422 2.125,1.4961 3.414062,3.94141 3.414062,6.57422 0,2.63281 -1.289062,5.08203 -3.414062,6.57813 -2.125,-1.4961 -3.414062,-3.94532 -3.414062,-6.57813 z m 1.800781,28.94531 c -2.816407,0.51563 -5.734375,-0.375 -7.785157,-2.42968 -2.046874,-2.04297 -2.941406,-4.96094 -2.425781,-7.78125 2.820313,-0.51563 5.738281,0.38281 7.785157,2.42578 1.65625,1.65234 2.554687,3.87109 2.566406,6.14453 v 0.10547 c 0,0.51172 -0.04687,1.02344 -0.140625,1.53515 z m -6.867188,18.17579 c 0.507813,0 1.007813,0.082 1.496094,0.24609 0.644531,0.20703 1.347656,-0.043 1.707031,-0.61328 1.375,-2.1836 3.273438,-3.42969 5.21875,-3.42969 0.01953,0 0.03516,0 0.05859,0 0.01953,0 0.03906,0 0.05859,0 1.941406,0 3.84375,1.24609 5.226562,3.42969 0.355469,0.57031 1.0625,0.82031 1.699219,0.61328 0.488281,-0.16406 0.992187,-0.24609 1.496094,-0.24609 1.585937,0 3.445312,0.78906 4.667969,2.3125 H 48.476562 c 1.226563,-1.52344 3.082032,-2.3125 4.667969,-2.3125 z m -17.648437,-19.4336 c 1.703125,4.08203 4.359375,7.75 7.824218,10.6836 0.277344,0.23437 0.613282,0.35156 0.949219,0.35156 0.417969,0 0.832031,-0.17969 1.121094,-0.51953 0.527344,-0.6211 0.449219,-1.55078 -0.167969,-2.07422 -5.707031,-4.83594 -8.976562,-11.88672 -8.976562,-19.35938 0,-7.46484 3.269531,-14.51562 8.976562,-19.34765 0.617188,-0.52735 0.695313,-1.45313 0.167969,-2.07422 -0.523437,-0.6211 -1.453125,-0.69531 -2.070313,-0.16797 -3.460937,2.93359 -6.117187,6.59766 -7.820312,10.67578 h -3.652344 l -2.996094,-5.19531 c 0.667969,-0.77735 1.078126,-1.78516 1.078126,-2.89063 0,-2.45312 -1.992188,-4.44531 -4.445313,-4.44531 -2.449219,0 -4.445313,1.99219 -4.445313,4.44531 0,2.44922 1.996094,4.44141 4.445313,4.44141 0.28125,0 0.554687,-0.0273 0.820313,-0.0781 l 3.421874,5.92579 c 0.261719,0.45703 0.746094,0.73828 1.273438,0.73828 h 3.453125 c -0.617187,2.10156 -0.992187,4.28125 -1.109375,6.5039 h -7.746094 c -0.605468,-1.72656 -2.253906,-2.97265 -4.191406,-2.97265 -2.453125,0 -4.449219,1.99218 -4.449219,4.4414 0,2.45313 1.996094,4.44532 4.449219,4.44532 1.9375,0 3.585938,-1.24219 4.191406,-2.97266 h 7.746094 c 0.117188,2.22266 0.492188,4.40625 1.109375,6.50781 H 31 c -0.527344,0 -1.011719,0.28125 -1.273438,0.73438 l -3.421874,5.92578 c -0.265626,-0.0508 -0.539063,-0.0781 -0.820313,-0.0781 -2.449219,0 -4.445313,1.9961 -4.445313,4.44532 0,2.44921 1.996094,4.4414 4.445313,4.4414 2.449219,0 4.445313,-1.99219 4.445313,-4.4414 0,-1.10547 -0.410157,-2.11719 -1.078126,-2.89454 l 2.996094,-5.19531 z M 23.980469,151.80859 c 0,-0.83203 0.675781,-1.5039 1.503906,-1.5039 0.828125,0 1.503906,0.67187 1.503906,1.5039 0,0.82813 -0.675781,1.50391 -1.503906,1.50391 -0.828125,0 -1.503906,-0.67578 -1.503906,-1.50391 z M 21.40625,172.3125 c -0.832031,0 -1.507812,-0.67188 -1.507812,-1.5 0,-0.82813 0.675781,-1.50391 1.507812,-1.50391 0.835938,0 1.507812,0.67578 1.507812,1.50391 0,0.82812 -0.675781,1.5 -1.507812,1.5 z m 4.078125,19.00781 c -0.828125,0 -1.503906,-0.67578 -1.503906,-1.5039 0,-0.83204 0.675781,-1.50782 1.503906,-1.50782 0.828125,0 1.503906,0.67578 1.503906,1.50782 0,0.82812 -0.675781,1.5039 -1.503906,1.5039 z m 72.132813,-19.03906 c 0.609374,1.73047 2.257812,2.97266 4.191402,2.97266 2.45313,0 4.44532,-1.99219 4.44532,-4.44141 0,-2.45313 -1.99219,-4.44531 -4.44532,-4.44531 -1.93359,0 -3.582028,1.24609 -4.191402,2.97656 h -7.746094 c -0.113282,-2.22656 -0.492188,-4.40625 -1.109375,-6.50781 h 3.449219 c 0.527343,0 1.011718,-0.28125 1.273437,-0.73828 l 3.421875,-5.92579 c 0.265625,0.0508 0.542969,0.0781 0.828125,0.0781 2.449215,0 4.441405,-1.99219 4.441405,-4.44141 0,-2.45312 -1.99219,-4.44531 -4.441405,-4.44531 -2.453125,0 -4.445313,1.99219 -4.445313,4.44531 0,1.10157 0.40625,2.11328 1.074219,2.89063 l -3,5.19531 H 87.71875 c -1.703125,-4.07812 -4.359375,-7.74219 -7.824219,-10.67578 -0.617187,-0.52734 -1.546875,-0.45313 -2.066406,0.16797 -0.527344,0.62109 -0.453125,1.54687 0.167969,2.07422 5.703125,4.83203 8.972656,11.88281 8.972656,19.34765 0,7.46485 -3.269531,14.52344 -8.972656,19.35938 -0.621094,0.52344 -0.695313,1.45312 -0.167969,2.07422 0.289063,0.33984 0.703125,0.51953 1.117187,0.51953 0.335938,0 0.675782,-0.11719 0.949219,-0.35156 3.464844,-2.9336 6.121094,-6.60157 7.828125,-10.6836 h 3.640625 l 3,5.19922 c -0.667969,0.77734 -1.074219,1.78516 -1.074219,2.89063 0,2.44921 1.992188,4.4414 4.445313,4.4414 2.449215,0 4.441405,-1.99219 4.441405,-4.4414 0,-2.44922 -1.99219,-4.44532 -4.441405,-4.44532 -0.285156,0 -0.5625,0.0273 -0.828125,0.0781 l -3.421875,-5.92578 C 93.222656,179.07025 92.738281,178.789 92.210938,178.789 h -3.445313 c 0.613281,-2.10156 0.992187,-4.28515 1.105469,-6.50781 z m 0.117187,-21.97656 c 0.828125,0 1.503906,0.67187 1.503906,1.5039 0,0.82813 -0.675781,1.50391 -1.503906,1.50391 -0.832031,0 -1.503906,-0.67578 -1.503906,-1.50391 0,-0.83203 0.671875,-1.5039 1.503906,-1.5039 z m 1.503906,39.51172 c 0,0.82812 -0.675781,1.5039 -1.503906,1.5039 -0.832031,0 -1.503906,-0.67578 -1.503906,-1.5039 0,-0.83204 0.671875,-1.50782 1.503906,-1.50782 0.828125,0 1.503906,0.67578 1.503906,1.50782 z m 2.570309,-20.50782 c 0.83204,0 1.50391,0.67578 1.50391,1.50391 0,0.82812 -0.67187,1.5 -1.50391,1.5 -0.82812,0 -1.5039,-0.67188 -1.5039,-1.5 0,-0.82813 0.67578,-1.50391 1.5039,-1.50391 z m 0,0"
         id="path2" />
    </g>
    <g
       style="fill:#1f28f0;fill-opacity:1"
       id="g4">
      <g
         transform="translate(106.41121,191.35921)"
         id="g3">
        <path
           style="stroke:none"
           d="m 2.0625,0 v -0.609375 c 0.726562,-0.238281 1.203125,-0.726563 1.421875,-1.46875 0.21875,-0.75 0.328125,-1.910156 0.328125,-3.484375 v -19.546875 c 0,-1.570313 -0.109375,-2.726563 -0.328125,-3.46875 -0.21875,-0.75 -0.695313,-1.242187 -1.421875,-1.484375 v -0.609375 h 21.15625 l 0.3125,4.859375 -0.578125,0.140625 C 22.140625,-27.222656 21.15625,-28.3125 20,-28.9375 18.84375,-29.5625 17.1875,-29.875 15.03125,-29.875 H 8.453125 v 12.703125 H 12 c 1.78125,0 3.179688,-0.113281 4.203125,-0.34375 1.03125,-0.238281 1.789063,-0.601563 2.28125,-1.09375 0.5,-0.5 0.863281,-1.128906 1.09375,-1.890625 h 0.625 v 7.4375 h -0.625 c -0.230469,-0.75 -0.59375,-1.375 -1.09375,-1.875 -0.492187,-0.5 -1.25,-0.863281 -2.28125,-1.09375 C 15.179688,-16.269531 13.78125,-16.390625 12,-16.390625 H 8.453125 V -5.5625 c 0,1.574219 0.109375,2.734375 0.328125,3.484375 0.21875,0.742187 0.691406,1.230469 1.421875,1.46875 V 0 Z m 0,0"
           id="path3" />
      </g>
    </g>
    <g
       style="fill:#1f28f0;fill-opacity:1"
       id="g6">
      <g
         transform="translate(130.54952,191.35921)"
         id="g5">
        <path
           style="stroke:none"
           d="m 2.0625,0 v -0.609375 c 0.726562,-0.238281 1.203125,-0.726563 1.421875,-1.46875 0.21875,-0.75 0.328125,-1.910156 0.328125,-3.484375 v -19.546875 c 0,-1.570313 -0.109375,-2.726563 -0.328125,-3.46875 -0.21875,-0.75 -0.695313,-1.242187 -1.421875,-1.484375 v -0.609375 h 21.03125 l 0.484375,6.1875 L 23,-24.359375 C 22.125,-26.523438 20.945312,-28 19.46875,-28.78125 18,-29.570312 16.035156,-29.96875 13.578125,-29.96875 h -5.125 v 13.140625 h 4.203125 c 1.78125,0 3.179688,-0.113281 4.203125,-0.34375 1.03125,-0.238281 1.789063,-0.601563 2.28125,-1.09375 0.5,-0.5 0.863281,-1.128906 1.09375,-1.890625 h 0.625 v 7.359375 h -0.625 c -0.230469,-0.757813 -0.59375,-1.382813 -1.09375,-1.875 -0.492187,-0.5 -1.25,-0.863281 -2.28125,-1.09375 C 15.835938,-16.003906 14.4375,-16.125 12.65625,-16.125 H 8.453125 v 13.234375 c 0,1.460937 0.726563,2.1875 2.1875,2.1875 h 4.21875 c 2.21875,0 4.082031,-0.40625 5.59375,-1.21875 1.519531,-0.820313 2.691406,-2.34375 3.515625,-4.5625 l 0.5625,0.09375 L 24.234375,0 Z m 0,0"
           id="path4" />
      </g>
    </g>
    <g
       style="fill:#1f28f0;fill-opacity:1"
       id="g8">
      <g
         transform="translate(156.17731,191.35921)"
         id="g7">
        <path
           style="stroke:none"
           d="m 24.359375,0.3125 c -1.199219,0 -2.15625,-0.2734375 -2.875,-0.8125 -0.710937,-0.539062 -1.335937,-1.363281 -1.875,-2.46875 C 19.066406,-4.082031 18.445312,-5.488281 17.75,-7.1875 c -0.648438,-1.601562 -1.1875,-2.953125 -1.625,-4.046875 -0.4375,-1.09375 -0.867188,-1.96875 -1.28125,-2.625 -0.40625,-0.664063 -0.902344,-1.144531 -1.484375,-1.4375 -0.585937,-0.289063 -1.355469,-0.4375 -2.3125,-0.4375 H 8.453125 V -5.5625 c 0,1.574219 0.109375,2.734375 0.328125,3.484375 0.21875,0.742187 0.691406,1.230469 1.421875,1.46875 V 0 H 2.0625 v -0.609375 c 0.726562,-0.238281 1.203125,-0.726563 1.421875,-1.46875 0.21875,-0.75 0.328125,-1.910156 0.328125,-3.484375 v -19.546875 c 0,-1.570313 -0.109375,-2.726563 -0.328125,-3.46875 -0.21875,-0.75 -0.695313,-1.242187 -1.421875,-1.484375 v -0.609375 h 9.203125 c 2.394531,0 4.34375,0.199219 5.84375,0.59375 1.5,0.398437 2.65625,0.921875 3.46875,1.578125 0.820313,0.65625 1.394531,1.414062 1.71875,2.265625 0.320313,0.84375 0.484375,1.703125 0.484375,2.578125 0,2.011719 -0.703125,3.71875 -2.109375,5.125 -1.398437,1.398438 -3.558594,2.273438 -6.484375,2.625 1.226562,0.148438 2.242188,0.398438 3.046875,0.75 0.800781,0.34375 1.488281,0.851562 2.0625,1.515625 0.570313,0.65625 1.09375,1.492187 1.5625,2.5 0.46875,1 0.992187,2.230469 1.578125,3.6875 0.78125,1.929687 1.390625,3.390625 1.828125,4.390625 0.4375,0.992188 0.84375,1.65625 1.21875,2 0.382813,0.335938 0.84375,0.5 1.375,0.5 0.113281,0 0.222656,0 0.328125,0 0.101562,0 0.210938,-0.015625 0.328125,-0.046875 V 0 c -0.5,0.113281 -1.058594,0.191406 -1.671875,0.234375 C 25.226562,0.285156 24.734375,0.3125 24.359375,0.3125 Z m -15.90625,-16.75 h 2.8125 c 1.65625,0 2.988281,-0.273438 4,-0.828125 1.007813,-0.550781 1.738281,-1.300781 2.1875,-2.25 0.457031,-0.945313 0.6875,-1.976563 0.6875,-3.09375 0,-1.195313 -0.265625,-2.359375 -0.796875,-3.484375 -0.523438,-1.125 -1.355469,-2.050781 -2.5,-2.78125 -1.136719,-0.726562 -2.621094,-1.09375 -4.453125,-1.09375 -0.617187,0 -1.261719,0.04297 -1.9375,0.125 z m 0,0"
           id="path6" />
      </g>
    </g>
    <g
       style="fill:#1f28f0;fill-opacity:1"
       id="g10">
      <g
         transform="translate(182.81268,191.35921)"
         id="g9">
        <path
           style="stroke:none"
           d="m 1.84375,0 v -0.609375 c 0.726562,-0.238281 1.203125,-0.726563 1.421875,-1.46875 0.21875,-0.75 0.328125,-1.910156 0.328125,-3.484375 v -16.90625 c 0,-1.78125 -0.109375,-3.179688 -0.328125,-4.203125 -0.21875,-1.03125 -0.546875,-1.789063 -0.984375,-2.28125 -0.4375,-0.5 -0.996094,-0.867187 -1.671875,-1.109375 v -0.609375 H 7.1875 L 18,-12.703125 28.296875,-30.671875 h 6.234375 v 0.609375 c -0.679688,0.242188 -1.234375,0.609375 -1.671875,1.109375 -0.4375,0.492187 -0.765625,1.25 -0.984375,2.28125 -0.21875,1.023437 -0.328125,2.421875 -0.328125,4.203125 V -5.5625 c 0,1.574219 0.109375,2.734375 0.328125,3.484375 0.21875,0.742187 0.691406,1.230469 1.421875,1.46875 V 0 h -8.15625 v -0.609375 c 0.738281,-0.238281 1.21875,-0.726563 1.4375,-1.46875 0.21875,-0.75 0.328125,-1.910156 0.328125,-3.484375 v -21.203125 l -10.515625,18.4375 H 15.375 L 4.375,-26.375 v 18.1875 c 0,1.78125 0.113281,3.183594 0.34375,4.203125 0.238281,1.023437 0.609375,1.78125 1.109375,2.28125 0.5,0.492187 1.128906,0.855469 1.890625,1.09375 V 0 Z m 0,0"
           id="path8" />
      </g>
    </g>
    <g
       style="fill:#1f28f0;fill-opacity:1"
       id="g12">
      <g
         transform="translate(218.95447,191.35921)"
         id="g11">
        <path
           style="stroke:none"
           d="m 2.0625,0 v -0.609375 c 0.726562,-0.238281 1.203125,-0.726563 1.421875,-1.46875 0.21875,-0.75 0.328125,-1.910156 0.328125,-3.484375 v -19.546875 c 0,-1.570313 -0.109375,-2.726563 -0.328125,-3.46875 -0.21875,-0.75 -0.695313,-1.242187 -1.421875,-1.484375 v -0.609375 h 21.03125 l 0.484375,6.1875 L 23,-24.359375 C 22.125,-26.523438 20.945312,-28 19.46875,-28.78125 18,-29.570312 16.035156,-29.96875 13.578125,-29.96875 h -5.125 v 13.140625 h 4.203125 c 1.78125,0 3.179688,-0.113281 4.203125,-0.34375 1.03125,-0.238281 1.789063,-0.601563 2.28125,-1.09375 0.5,-0.5 0.863281,-1.128906 1.09375,-1.890625 h 0.625 v 7.359375 h -0.625 c -0.230469,-0.757813 -0.59375,-1.382813 -1.09375,-1.875 -0.492187,-0.5 -1.25,-0.863281 -2.28125,-1.09375 C 15.835938,-16.003906 14.4375,-16.125 12.65625,-16.125 H 8.453125 v 13.234375 c 0,1.460937 0.726563,2.1875 2.1875,2.1875 h 4.21875 c 2.21875,0 4.082031,-0.40625 5.59375,-1.21875 1.519531,-0.820313 2.691406,-2.34375 3.515625,-4.5625 l 0.5625,0.09375 L 24.234375,0 Z m 0,0"
           id="path10" />
      </g>
    </g>
    <g
       style="fill:#1f28f0;fill-opacity:1"
       id="g14">
      <g
         transform="translate(244.58226,191.35921)"
         id="g13">
        <path
           style="stroke:none"
           d="M 12.53125,0.4375 C 10.28125,0.4375 8.191406,0.125 6.265625,-0.5 4.335938,-1.132812 2.816406,-1.859375 1.703125,-2.671875 L 1.53125,-9.25 2.109375,-9.328125 c 0.601563,1.667969 1.4375,3.167969 2.5,4.5 1.070313,1.324219 2.367187,2.382813 3.890625,3.171875 1.519531,0.78125 3.242188,1.171875 5.171875,1.171875 1.019531,0 1.96875,-0.207031 2.84375,-0.625 0.875,-0.425781 1.585937,-1.046875 2.140625,-1.859375 C 19.21875,-3.789062 19.5,-4.800781 19.5,-6 c 0,-1.082031 -0.308594,-2.023438 -0.921875,-2.828125 -0.617187,-0.800781 -1.398437,-1.5 -2.34375,-2.09375 -0.949219,-0.601563 -1.949219,-1.128906 -3,-1.578125 -1.054687,-0.457031 -2.015625,-0.863281 -2.890625,-1.21875 -1.492188,-0.632812 -2.867188,-1.273438 -4.125,-1.921875 -1.25,-0.644531 -2.257812,-1.46875 -3.015625,-2.46875 -0.761719,-1.007813 -1.140625,-2.363281 -1.140625,-4.0625 0,-2.71875 1.015625,-4.863281 3.046875,-6.4375 2.03125,-1.570313 4.765625,-2.359375 8.203125,-2.359375 1.632812,0 3.160156,0.164062 4.578125,0.484375 1.414063,0.3125 2.695313,0.761719 3.84375,1.34375 l 0.171875,5.703125 -0.484375,0.171875 c -0.90625,-2.25 -2.230469,-3.972656 -3.96875,-5.171875 -1.730469,-1.195312 -3.664063,-1.796875 -5.796875,-1.796875 -1.75,0 -3.234375,0.492187 -4.453125,1.46875 -1.210937,0.980469 -1.8125,2.335937 -1.8125,4.0625 0,0.960937 0.238281,1.796875 0.71875,2.515625 0.476563,0.710938 1.117187,1.328125 1.921875,1.859375 0.8125,0.523437 1.675781,0.980469 2.59375,1.375 0.914062,0.398437 1.8125,0.773437 2.6875,1.125 1.113281,0.4375 2.242188,0.90625 3.390625,1.40625 1.15625,0.492187 2.21875,1.074219 3.1875,1.75 0.96875,0.667969 1.742187,1.46875 2.328125,2.40625 0.582031,0.9375 0.875,2.0625 0.875,3.375 0,1.492187 -0.308594,2.820313 -0.921875,3.984375 -0.617187,1.167969 -1.433594,2.148438 -2.453125,2.9375 -1.023438,0.792969 -2.164062,1.390625 -3.421875,1.796875 -1.25,0.40625 -2.507813,0.609375 -3.765625,0.609375 z m 0,0"
           id="path12" />
      </g>
    </g>
    <g
       style="fill:#1f28f0;fill-opacity:1"
       id="g16">
      <g
         transform="translate(268.3701,191.35921)"
         id="g15">
        <path
           style="stroke:none"
           d="m 8.0625,0 v -0.609375 c 0.726562,-0.238281 1.203125,-0.726563 1.421875,-1.46875 0.21875,-0.75 0.328125,-1.910156 0.328125,-3.484375 l -0.046875,-8.5 -6.484375,-11.75 c -0.730469,-1.363281 -1.4375,-2.351562 -2.125,-2.96875 -0.6875,-0.613281 -1.273438,-1.039062 -1.765625,-1.28125 v -0.609375 h 8.1875 v 0.609375 c -0.730469,0.242188 -0.945313,0.667969 -0.640625,1.28125 0.3125,0.617188 0.847656,1.605469 1.609375,2.96875 l 5.78125,10.4375 5.90625,-10.4375 c 0.757813,-1.363281 1.097656,-2.367188 1.015625,-3.015625 -0.08594,-0.644531 -0.578125,-1.054687 -1.484375,-1.234375 v -0.609375 h 5.640625 v 0.609375 c -0.636719,0.242188 -1.324219,0.667969 -2.0625,1.28125 -0.730469,0.617188 -1.46875,1.605469 -2.21875,2.96875 L 14.5,-14.015625 V -5.5625 c 0,1.574219 0.109375,2.734375 0.328125,3.484375 0.21875,0.742187 0.691406,1.230469 1.421875,1.46875 V 0 Z m 0,0"
           id="path14" />
      </g>
    </g>
    <g
       style="fill:#1f28f0;fill-opacity:1"
       id="g18">
      <g
         transform="translate(292.59603,191.35921)"
         id="g17">
        <path
           style="stroke:none"
           d="M 25.140625,0.34375 4.59375,-25.59375 V -8.1875 c 0,1.78125 0.113281,3.183594 0.34375,4.203125 0.238281,1.023437 0.609375,1.78125 1.109375,2.28125 0.5,0.492187 1.128906,0.855469 1.890625,1.09375 V 0 h -5.875 v -0.609375 c 0.726562,-0.238281 1.203125,-0.726563 1.421875,-1.46875 0.21875,-0.75 0.328125,-1.910156 0.328125,-3.484375 v -19.546875 c 0,-1.570313 -0.148438,-2.726563 -0.4375,-3.46875 -0.292969,-0.75 -0.90625,-1.242187 -1.84375,-1.484375 v -0.609375 H 6.484375 L 24.890625,-7.625 v -14.84375 c 0,-1.78125 -0.121094,-3.179688 -0.359375,-4.203125 -0.230469,-1.03125 -0.59375,-1.789063 -1.09375,-2.28125 -0.5,-0.5 -1.125,-0.867187 -1.875,-1.109375 v -0.609375 h 5.90625 v 0.609375 c -0.730469,0.242188 -1.203125,0.734375 -1.421875,1.484375 -0.21875,0.742187 -0.328125,1.898437 -0.328125,3.46875 V 0.34375 Z m 0,0"
           id="path16" />
      </g>
    </g>
    <g
       style="fill:#1f28f0;fill-opacity:1"
       id="g20">
      <g
         transform="translate(321.15898,191.35921)"
         id="g19">
        <path
           style="stroke:none"
           d="M 19.28125,0.4375 C 15.800781,0.4375 12.789062,-0.148438 10.25,-1.328125 7.707031,-2.515625 5.753906,-4.238281 4.390625,-6.5 c -1.355469,-2.269531 -2.03125,-5.039062 -2.03125,-8.3125 0,-2.21875 0.414063,-4.296875 1.25,-6.234375 0.832031,-1.945313 2.03125,-3.664063 3.59375,-5.15625 1.5625,-1.488281 3.429687,-2.65625 5.609375,-3.5 2.175781,-0.84375 4.609375,-1.265625 7.296875,-1.265625 1.082031,0 2.257813,0.07422 3.53125,0.21875 1.269531,0.148438 2.476563,0.371094 3.625,0.671875 1.15625,0.304687 2.113281,0.71875 2.875,1.25 l 0.171875,5.78125 -0.515625,0.140625 c -0.585937,-1.519531 -1.449219,-2.8125 -2.59375,-3.875 -1.136719,-1.070312 -2.414063,-1.898438 -3.828125,-2.484375 -1.417969,-0.582031 -2.886719,-0.875 -4.40625,-0.875 -2.335938,0 -4.402344,0.511719 -6.203125,1.53125 -1.792969,1.023437 -3.199219,2.523437 -4.21875,4.5 -1.023437,1.96875 -1.53125,4.414063 -1.53125,7.328125 0,2.105469 0.300781,4.136719 0.90625,6.09375 0.613281,1.960938 1.5,3.703125 2.65625,5.234375 1.15625,1.53125 2.570313,2.746094 4.25,3.640625 1.675781,0.886719 3.582031,1.328125 5.71875,1.328125 2.457031,0 4.515625,-0.679687 6.171875,-2.046875 1.664062,-1.375 2.894531,-3.203125 3.6875,-5.484375 l 0.5625,0.078125 -0.6875,6.265625 c -1.179688,0.53125 -2.636719,1.015625 -4.375,1.453125 -1.730469,0.4375 -3.9375,0.65625 -6.625,0.65625 z m 0,0"
           id="path18" />
      </g>
    </g>
  </g>
</svg>
