<svg xmlns="http://www.w3.org/2000/svg" xmlns:xlink="http://www.w3.org/1999/xlink" width="500" zoomAndPan="magnify" viewBox="0 0 375 374.999991" height="500" preserveAspectRatio="xMidYMid meet" version="1.2"><defs><clipPath id="3eba426ec6"><path d="M 42.628906 37.5 L 332 37.5 L 332 239.25 L 42.628906 239.25 Z M 42.628906 37.5 "/></clipPath></defs><g id="8079146225"><g clip-rule="nonzero" clip-path="url(#3eba426ec6)"><path style=" stroke:none;fill-rule:nonzero;fill:#1f28f0;fill-opacity:1;" d="M 253.101562 229.6875 L 241.042969 229.6875 C 236.328125 219.507812 225.972656 212.660156 214.769531 212.660156 C 213.328125 212.660156 211.894531 212.78125 210.480469 213.03125 C 205.445312 206.371094 198.996094 202.097656 192.046875 200.789062 L 192.046875 154.832031 C 194.902344 155.355469 197.769531 155.625 200.625 155.625 C 213.113281 155.625 225.308594 150.71875 234.371094 141.65625 C 246.582031 129.449219 251.242188 111.539062 246.523438 94.910156 C 246.078125 93.320312 244.832031 92.074219 243.238281 91.628906 C 226.605469 86.917969 208.691406 91.5625 196.496094 103.761719 C 194.875 105.378906 193.394531 107.101562 192.046875 108.898438 L 192.046875 99.070312 C 201.882812 92.511719 207.882812 81.410156 207.882812 69.472656 C 207.882812 56.570312 200.875 44.648438 189.609375 38.367188 C 188.167969 37.570312 186.410156 37.570312 184.964844 38.378906 C 173.6875 44.667969 166.691406 56.578125 166.691406 69.472656 C 166.691406 81.402344 172.695312 92.503906 182.519531 99.070312 L 182.519531 133.003906 C 182.007812 132.425781 181.488281 131.859375 180.9375 131.3125 C 171.214844 121.597656 156.949219 117.882812 143.699219 121.632812 C 142.121094 122.089844 140.871094 123.328125 140.417969 124.917969 C 136.667969 138.167969 140.371094 152.433594 150.09375 162.15625 C 157.3125 169.367188 167.019531 173.273438 176.945312 173.273438 C 178.796875 173.273438 180.667969 173.132812 182.519531 172.855469 L 182.519531 200.789062 C 175.578125 202.097656 169.128906 206.371094 164.105469 213.03125 C 162.683594 212.78125 161.25 212.660156 159.808594 212.660156 C 148.613281 212.660156 138.257812 219.507812 133.53125 229.6875 L 121.84375 229.6875 C 119.210938 229.6875 117.082031 231.828125 117.082031 234.449219 C 117.082031 237.082031 119.210938 239.214844 121.84375 239.214844 L 253.101562 239.214844 C 255.726562 239.214844 257.867188 237.082031 257.867188 234.449219 C 257.867188 231.828125 255.726562 229.6875 253.101562 229.6875 Z M 203.230469 110.496094 C 212.347656 101.378906 225.460938 97.535156 238 100.152344 C 240.617188 112.683594 236.765625 125.792969 227.636719 134.921875 C 218.507812 144.046875 205.398438 147.902344 192.855469 145.296875 C 190.25 132.742188 194.101562 119.625 203.230469 110.496094 Z M 176.21875 69.472656 C 176.21875 60.949219 180.398438 53.003906 187.292969 48.15625 C 194.175781 53.003906 198.355469 60.941406 198.355469 69.472656 C 198.355469 78.007812 194.175781 85.941406 187.292969 90.789062 C 180.398438 85.941406 176.21875 77.996094 176.21875 69.472656 Z M 182.0625 163.28125 C 172.9375 164.957031 163.472656 162.0625 156.828125 155.410156 C 150.195312 148.785156 147.300781 139.320312 148.96875 130.183594 C 158.105469 128.519531 167.566406 131.421875 174.199219 138.046875 C 179.558594 143.398438 182.472656 150.589844 182.519531 157.957031 L 182.519531 158.304688 C 182.511719 159.960938 182.359375 161.625 182.0625 163.28125 Z M 159.808594 222.1875 C 161.445312 222.1875 163.074219 222.449219 164.65625 222.976562 C 166.738281 223.65625 169.019531 222.847656 170.179688 220.996094 C 174.636719 213.925781 180.796875 209.878906 187.097656 209.878906 C 187.164062 209.878906 187.21875 209.878906 187.28125 209.878906 C 187.347656 209.878906 187.414062 209.878906 187.476562 209.878906 C 193.769531 209.878906 199.9375 213.925781 204.414062 220.996094 C 205.574219 222.847656 207.855469 223.65625 209.929688 222.976562 C 211.511719 222.449219 213.140625 222.1875 214.769531 222.1875 C 219.914062 222.1875 225.933594 224.746094 229.90625 229.6875 L 144.667969 229.6875 C 148.652344 224.746094 154.660156 222.1875 159.808594 222.1875 Z M 102.601562 159.207031 C 108.128906 172.425781 116.738281 184.320312 127.96875 193.828125 C 128.859375 194.589844 129.949219 194.960938 131.039062 194.960938 C 132.394531 194.960938 133.734375 194.386719 134.675781 193.277344 C 136.378906 191.269531 136.128906 188.261719 134.125 186.5625 C 115.640625 170.890625 105.03125 148.03125 105.03125 123.820312 C 105.03125 99.621094 115.640625 76.777344 134.125 61.109375 C 136.128906 59.40625 136.378906 56.402344 134.675781 54.390625 C 132.972656 52.382812 129.96875 52.140625 127.96875 53.84375 C 116.746094 63.351562 108.140625 75.234375 102.613281 88.445312 L 90.785156 88.445312 L 81.074219 71.613281 C 83.242188 69.09375 84.5625 65.816406 84.5625 62.234375 C 84.5625 54.289062 78.105469 47.832031 70.160156 47.832031 C 62.222656 47.832031 55.753906 54.289062 55.753906 62.234375 C 55.753906 70.171875 62.222656 76.636719 70.160156 76.636719 C 71.070312 76.636719 71.953125 76.546875 72.820312 76.386719 L 83.910156 95.589844 C 84.757812 97.0625 86.328125 97.972656 88.03125 97.972656 L 99.226562 97.972656 C 97.226562 104.785156 96.007812 111.855469 95.632812 119.058594 L 70.53125 119.058594 C 68.558594 113.457031 63.21875 109.425781 56.945312 109.425781 C 48.992188 109.425781 42.523438 115.882812 42.523438 123.820312 C 42.523438 131.765625 48.992188 138.222656 56.945312 138.222656 C 63.21875 138.222656 68.558594 134.195312 70.53125 128.585938 L 95.632812 128.585938 C 96.007812 135.796875 97.226562 142.867188 99.226562 149.679688 L 88.03125 149.679688 C 86.328125 149.679688 84.757812 150.589844 83.910156 152.058594 L 72.820312 171.265625 C 71.953125 171.105469 71.070312 171.011719 70.160156 171.011719 C 62.222656 171.011719 55.753906 177.480469 55.753906 185.417969 C 55.753906 193.363281 62.222656 199.820312 70.160156 199.820312 C 78.09375 199.820312 84.5625 193.363281 84.5625 185.417969 C 84.5625 181.835938 83.242188 178.558594 81.074219 176.039062 L 90.785156 159.207031 Z M 65.285156 62.234375 C 65.285156 59.546875 67.46875 57.359375 70.160156 57.359375 C 72.847656 57.359375 75.035156 59.546875 75.035156 62.234375 C 75.035156 64.925781 72.847656 67.109375 70.160156 67.109375 C 67.46875 67.109375 65.285156 64.925781 65.285156 62.234375 Z M 56.945312 128.695312 C 54.25 128.695312 52.050781 126.511719 52.050781 123.832031 C 52.050781 121.140625 54.25 118.953125 56.945312 118.953125 C 59.644531 118.953125 61.820312 121.140625 61.820312 123.832031 C 61.820312 126.511719 59.636719 128.695312 56.945312 128.695312 Z M 70.160156 190.292969 C 67.46875 190.292969 65.285156 188.105469 65.285156 185.417969 C 65.285156 182.726562 67.46875 180.539062 70.160156 180.539062 C 72.847656 180.539062 75.035156 182.726562 75.035156 185.417969 C 75.035156 188.105469 72.847656 190.292969 70.160156 190.292969 Z M 303.941406 128.59375 C 305.914062 134.195312 311.253906 138.222656 317.527344 138.222656 C 325.472656 138.222656 331.929688 131.765625 331.929688 123.832031 C 331.929688 115.882812 325.472656 109.425781 317.527344 109.425781 C 311.253906 109.425781 305.914062 113.457031 303.941406 119.066406 L 278.839844 119.066406 C 278.464844 111.855469 277.238281 104.785156 275.238281 97.972656 L 286.421875 97.972656 C 288.125 97.972656 289.695312 97.0625 290.542969 95.589844 L 301.632812 76.378906 C 302.5 76.546875 303.394531 76.636719 304.3125 76.636719 C 312.25 76.636719 318.71875 70.171875 318.71875 62.234375 C 318.71875 54.289062 312.25 47.832031 304.3125 47.832031 C 296.367188 47.832031 289.910156 54.289062 289.910156 62.234375 C 289.910156 65.808594 291.222656 69.082031 293.390625 71.605469 L 283.667969 88.445312 L 271.859375 88.445312 C 266.332031 75.234375 257.726562 63.351562 246.503906 53.84375 C 244.496094 52.140625 241.492188 52.382812 239.796875 54.390625 C 238.09375 56.402344 238.335938 59.40625 240.347656 61.109375 C 258.835938 76.777344 269.433594 99.628906 269.433594 123.820312 C 269.433594 148.011719 258.835938 170.890625 240.347656 186.5625 C 238.335938 188.261719 238.09375 191.269531 239.796875 193.277344 C 240.738281 194.386719 242.078125 194.960938 243.425781 194.960938 C 244.515625 194.960938 245.613281 194.589844 246.503906 193.828125 C 257.726562 184.320312 266.34375 172.425781 271.871094 159.207031 L 283.667969 159.207031 L 293.390625 176.046875 C 291.222656 178.566406 289.910156 181.84375 289.910156 185.417969 C 289.910156 193.363281 296.367188 199.820312 304.3125 199.820312 C 312.25 199.820312 318.71875 193.363281 318.71875 185.417969 C 318.71875 177.480469 312.25 171.011719 304.3125 171.011719 C 303.394531 171.011719 302.5 171.105469 301.632812 171.273438 L 290.542969 152.058594 C 289.695312 150.589844 288.125 149.679688 286.421875 149.679688 L 275.246094 149.679688 C 277.238281 142.867188 278.464844 135.796875 278.839844 128.585938 L 303.941406 128.585938 Z M 304.3125 57.359375 C 307.003906 57.359375 309.191406 59.546875 309.191406 62.234375 C 309.191406 64.925781 307.003906 67.109375 304.3125 67.109375 C 301.625 67.109375 299.4375 64.925781 299.4375 62.234375 C 299.4375 59.546875 301.625 57.359375 304.3125 57.359375 Z M 309.191406 185.417969 C 309.191406 188.105469 307.003906 190.292969 304.3125 190.292969 C 301.625 190.292969 299.4375 188.105469 299.4375 185.417969 C 299.4375 182.726562 301.625 180.539062 304.3125 180.539062 C 307.003906 180.539062 309.191406 182.726562 309.191406 185.417969 Z M 317.527344 118.953125 C 320.214844 118.953125 322.402344 121.140625 322.402344 123.832031 C 322.402344 126.511719 320.214844 128.695312 317.527344 128.695312 C 314.835938 128.695312 312.652344 126.511719 312.652344 123.832031 C 312.652344 121.140625 314.835938 118.953125 317.527344 118.953125 Z M 317.527344 118.953125 "/></g><g style="fill:#1f28f0;fill-opacity:1;"><g transform="translate(51.521708, 309.117613)"><path style="stroke:none" d="M 2.265625 0 L 2.265625 -0.671875 C 3.066406 -0.929688 3.585938 -1.46875 3.828125 -2.28125 C 4.066406 -3.101562 4.1875 -4.378906 4.1875 -6.109375 L 4.1875 -27.5625 C 4.1875 -29.300781 4.066406 -30.578125 3.828125 -31.390625 C 3.585938 -32.210938 3.066406 -32.75 2.265625 -33 L 2.265625 -33.671875 L 25.5 -33.671875 L 25.828125 -28.34375 L 25.203125 -28.1875 C 24.304688 -29.882812 23.222656 -31.078125 21.953125 -31.765625 C 20.691406 -32.460938 18.875 -32.8125 16.5 -32.8125 L 9.28125 -32.8125 L 9.28125 -18.859375 L 13.1875 -18.859375 C 15.132812 -18.859375 16.671875 -18.984375 17.796875 -19.234375 C 18.921875 -19.492188 19.753906 -19.894531 20.296875 -20.4375 C 20.847656 -20.988281 21.25 -21.679688 21.5 -22.515625 L 22.171875 -22.515625 L 22.171875 -14.34375 L 21.5 -14.34375 C 21.25 -15.175781 20.847656 -15.863281 20.296875 -16.40625 C 19.753906 -16.945312 18.921875 -17.347656 17.796875 -17.609375 C 16.671875 -17.867188 15.132812 -18 13.1875 -18 L 9.28125 -18 L 9.28125 -6.109375 C 9.28125 -4.378906 9.398438 -3.101562 9.640625 -2.28125 C 9.878906 -1.46875 10.398438 -0.929688 11.203125 -0.671875 L 11.203125 0 Z M 2.265625 0 "/></g></g><g style="fill:#1f28f0;fill-opacity:1;"><g transform="translate(78.026367, 309.117613)"><path style="stroke:none" d="M 2.265625 0 L 2.265625 -0.671875 C 3.066406 -0.929688 3.585938 -1.46875 3.828125 -2.28125 C 4.066406 -3.101562 4.1875 -4.378906 4.1875 -6.109375 L 4.1875 -27.5625 C 4.1875 -29.300781 4.066406 -30.578125 3.828125 -31.390625 C 3.585938 -32.210938 3.066406 -32.75 2.265625 -33 L 2.265625 -33.671875 L 25.359375 -33.671875 L 25.875 -26.890625 L 25.25 -26.75 C 24.289062 -29.125 23 -30.742188 21.375 -31.609375 C 19.757812 -32.472656 17.601562 -32.90625 14.90625 -32.90625 L 9.28125 -32.90625 L 9.28125 -18.46875 L 13.90625 -18.46875 C 15.863281 -18.46875 17.398438 -18.597656 18.515625 -18.859375 C 19.640625 -19.117188 20.472656 -19.519531 21.015625 -20.0625 C 21.566406 -20.601562 21.96875 -21.289062 22.21875 -22.125 L 22.90625 -22.125 L 22.90625 -14.046875 L 22.21875 -14.046875 C 21.96875 -14.878906 21.566406 -15.566406 21.015625 -16.109375 C 20.472656 -16.660156 19.640625 -17.0625 18.515625 -17.3125 C 17.398438 -17.570312 15.863281 -17.703125 13.90625 -17.703125 L 9.28125 -17.703125 L 9.28125 -3.171875 C 9.28125 -1.566406 10.082031 -0.765625 11.6875 -0.765625 L 16.3125 -0.765625 C 18.75 -0.765625 20.800781 -1.210938 22.46875 -2.109375 C 24.132812 -3.015625 25.414062 -4.6875 26.3125 -7.125 L 26.9375 -7.03125 L 26.609375 0 Z M 2.265625 0 "/></g></g><g style="fill:#1f28f0;fill-opacity:1;"><g transform="translate(106.166528, 309.117613)"><path style="stroke:none" d="M 26.75 0.34375 C 25.4375 0.34375 24.382812 0.046875 23.59375 -0.546875 C 22.8125 -1.140625 22.125 -2.046875 21.53125 -3.265625 C 20.9375 -4.484375 20.253906 -6.023438 19.484375 -7.890625 C 18.773438 -9.648438 18.179688 -11.128906 17.703125 -12.328125 C 17.222656 -13.535156 16.757812 -14.5 16.3125 -15.21875 C 15.863281 -15.945312 15.316406 -16.46875 14.671875 -16.78125 C 14.035156 -17.101562 13.1875 -17.265625 12.125 -17.265625 L 9.28125 -17.265625 L 9.28125 -6.109375 C 9.28125 -4.378906 9.398438 -3.101562 9.640625 -2.28125 C 9.878906 -1.46875 10.398438 -0.929688 11.203125 -0.671875 L 11.203125 0 L 2.265625 0 L 2.265625 -0.671875 C 3.066406 -0.929688 3.585938 -1.46875 3.828125 -2.28125 C 4.066406 -3.101562 4.1875 -4.378906 4.1875 -6.109375 L 4.1875 -27.5625 C 4.1875 -29.300781 4.066406 -30.578125 3.828125 -31.390625 C 3.585938 -32.210938 3.066406 -32.75 2.265625 -33 L 2.265625 -33.671875 L 12.359375 -33.671875 C 14.992188 -33.671875 17.132812 -33.453125 18.78125 -33.015625 C 20.4375 -32.585938 21.710938 -32.015625 22.609375 -31.296875 C 23.503906 -30.578125 24.128906 -29.75 24.484375 -28.8125 C 24.835938 -27.882812 25.015625 -26.941406 25.015625 -25.984375 C 25.015625 -23.765625 24.242188 -21.882812 22.703125 -20.34375 C 21.160156 -18.8125 18.789062 -17.851562 15.59375 -17.46875 C 16.9375 -17.300781 18.046875 -17.023438 18.921875 -16.640625 C 19.804688 -16.253906 20.5625 -15.703125 21.1875 -14.984375 C 21.8125 -14.265625 22.378906 -13.347656 22.890625 -12.234375 C 23.410156 -11.128906 23.988281 -9.773438 24.625 -8.171875 C 25.5 -6.054688 26.175781 -4.453125 26.65625 -3.359375 C 27.132812 -2.273438 27.582031 -1.546875 28 -1.171875 C 28.414062 -0.804688 28.910156 -0.625 29.484375 -0.625 C 29.617188 -0.625 29.738281 -0.625 29.84375 -0.625 C 29.957031 -0.625 30.082031 -0.640625 30.21875 -0.671875 L 30.21875 0 C 29.664062 0.125 29.050781 0.210938 28.375 0.265625 C 27.707031 0.316406 27.164062 0.34375 26.75 0.34375 Z M 9.28125 -18.046875 L 12.359375 -18.046875 C 14.191406 -18.046875 15.660156 -18.347656 16.765625 -18.953125 C 17.867188 -19.566406 18.671875 -20.394531 19.171875 -21.4375 C 19.671875 -22.476562 19.921875 -23.609375 19.921875 -24.828125 C 19.921875 -26.140625 19.628906 -27.410156 19.046875 -28.640625 C 18.472656 -29.878906 17.5625 -30.898438 16.3125 -31.703125 C 15.0625 -32.503906 13.425781 -32.90625 11.40625 -32.90625 C 10.726562 -32.90625 10.019531 -32.859375 9.28125 -32.765625 Z M 9.28125 -18.046875 "/></g></g><g style="fill:#1f28f0;fill-opacity:1;"><g transform="translate(135.413056, 309.117613)"><path style="stroke:none" d="M 2.015625 0 L 2.015625 -0.671875 C 2.816406 -0.929688 3.335938 -1.46875 3.578125 -2.28125 C 3.816406 -3.101562 3.9375 -4.378906 3.9375 -6.109375 L 3.9375 -24.6875 C 3.9375 -26.632812 3.816406 -28.171875 3.578125 -29.296875 C 3.335938 -30.421875 2.976562 -31.253906 2.5 -31.796875 C 2.019531 -32.347656 1.410156 -32.75 0.671875 -33 L 0.671875 -33.671875 L 7.890625 -33.671875 L 19.765625 -13.953125 L 31.078125 -33.671875 L 37.90625 -33.671875 L 37.90625 -33 C 37.164062 -32.75 36.554688 -32.347656 36.078125 -31.796875 C 35.597656 -31.253906 35.238281 -30.421875 35 -29.296875 C 34.757812 -28.171875 34.640625 -26.632812 34.640625 -24.6875 L 34.640625 -6.109375 C 34.640625 -4.378906 34.757812 -3.101562 35 -2.28125 C 35.238281 -1.46875 35.757812 -0.929688 36.5625 -0.671875 L 36.5625 0 L 27.609375 0 L 27.609375 -0.671875 C 28.410156 -0.929688 28.929688 -1.46875 29.171875 -2.28125 C 29.421875 -3.101562 29.546875 -4.378906 29.546875 -6.109375 L 29.546875 -29.390625 L 18 -9.140625 L 16.890625 -9.140625 L 4.8125 -28.96875 L 4.8125 -9 C 4.8125 -7.039062 4.9375 -5.5 5.1875 -4.375 C 5.445312 -3.25 5.847656 -2.414062 6.390625 -1.875 C 6.941406 -1.332031 7.632812 -0.929688 8.46875 -0.671875 L 8.46875 0 Z M 2.015625 0 "/></g></g><g style="fill:#1f28f0;fill-opacity:1;"><g transform="translate(175.097941, 309.117613)"><path style="stroke:none" d="M 2.265625 0 L 2.265625 -0.671875 C 3.066406 -0.929688 3.585938 -1.46875 3.828125 -2.28125 C 4.066406 -3.101562 4.1875 -4.378906 4.1875 -6.109375 L 4.1875 -27.5625 C 4.1875 -29.300781 4.066406 -30.578125 3.828125 -31.390625 C 3.585938 -32.210938 3.066406 -32.75 2.265625 -33 L 2.265625 -33.671875 L 25.359375 -33.671875 L 25.875 -26.890625 L 25.25 -26.75 C 24.289062 -29.125 23 -30.742188 21.375 -31.609375 C 19.757812 -32.472656 17.601562 -32.90625 14.90625 -32.90625 L 9.28125 -32.90625 L 9.28125 -18.46875 L 13.90625 -18.46875 C 15.863281 -18.46875 17.398438 -18.597656 18.515625 -18.859375 C 19.640625 -19.117188 20.472656 -19.519531 21.015625 -20.0625 C 21.566406 -20.601562 21.96875 -21.289062 22.21875 -22.125 L 22.90625 -22.125 L 22.90625 -14.046875 L 22.21875 -14.046875 C 21.96875 -14.878906 21.566406 -15.566406 21.015625 -16.109375 C 20.472656 -16.660156 19.640625 -17.0625 18.515625 -17.3125 C 17.398438 -17.570312 15.863281 -17.703125 13.90625 -17.703125 L 9.28125 -17.703125 L 9.28125 -3.171875 C 9.28125 -1.566406 10.082031 -0.765625 11.6875 -0.765625 L 16.3125 -0.765625 C 18.75 -0.765625 20.800781 -1.210938 22.46875 -2.109375 C 24.132812 -3.015625 25.414062 -4.6875 26.3125 -7.125 L 26.9375 -7.03125 L 26.609375 0 Z M 2.265625 0 "/></g></g><g style="fill:#1f28f0;fill-opacity:1;"><g transform="translate(203.238102, 309.117613)"><path style="stroke:none" d="M 13.765625 0.484375 C 11.296875 0.484375 9 0.140625 6.875 -0.546875 C 4.757812 -1.242188 3.09375 -2.039062 1.875 -2.9375 L 1.6875 -10.15625 L 2.3125 -10.25 C 2.976562 -8.414062 3.894531 -6.769531 5.0625 -5.3125 C 6.238281 -3.851562 7.660156 -2.691406 9.328125 -1.828125 C 10.992188 -0.960938 12.890625 -0.53125 15.015625 -0.53125 C 16.128906 -0.53125 17.164062 -0.757812 18.125 -1.21875 C 19.09375 -1.6875 19.878906 -2.367188 20.484375 -3.265625 C 21.097656 -4.171875 21.40625 -5.28125 21.40625 -6.59375 C 21.40625 -7.78125 21.066406 -8.8125 20.390625 -9.6875 C 19.722656 -10.570312 18.867188 -11.34375 17.828125 -12 C 16.785156 -12.65625 15.6875 -13.234375 14.53125 -13.734375 C 13.375 -14.234375 12.316406 -14.675781 11.359375 -15.0625 C 9.722656 -15.757812 8.210938 -16.460938 6.828125 -17.171875 C 5.453125 -17.878906 4.347656 -18.785156 3.515625 -19.890625 C 2.679688 -20.992188 2.265625 -22.476562 2.265625 -24.34375 C 2.265625 -27.320312 3.378906 -29.675781 5.609375 -31.40625 C 7.835938 -33.144531 10.84375 -34.015625 14.625 -34.015625 C 16.414062 -34.015625 18.085938 -33.835938 19.640625 -33.484375 C 21.203125 -33.128906 22.609375 -32.632812 23.859375 -32 L 24.046875 -25.734375 L 23.53125 -25.546875 C 22.53125 -28.015625 21.078125 -29.90625 19.171875 -31.21875 C 17.265625 -32.539062 15.140625 -33.203125 12.796875 -33.203125 C 10.867188 -33.203125 9.238281 -32.660156 7.90625 -31.578125 C 6.582031 -30.503906 5.921875 -29.023438 5.921875 -27.140625 C 5.921875 -26.078125 6.179688 -25.148438 6.703125 -24.359375 C 7.234375 -23.578125 7.941406 -22.894531 8.828125 -22.3125 C 9.710938 -21.738281 10.660156 -21.234375 11.671875 -20.796875 C 12.679688 -20.367188 13.664062 -19.960938 14.625 -19.578125 C 15.84375 -19.097656 17.082031 -18.582031 18.34375 -18.03125 C 19.613281 -17.488281 20.773438 -16.847656 21.828125 -16.109375 C 22.890625 -15.378906 23.742188 -14.5 24.390625 -13.46875 C 25.035156 -12.445312 25.359375 -11.210938 25.359375 -9.765625 C 25.359375 -8.128906 25.019531 -6.671875 24.34375 -5.390625 C 23.664062 -4.109375 22.765625 -3.03125 21.640625 -2.15625 C 20.523438 -1.289062 19.273438 -0.632812 17.890625 -0.1875 C 16.515625 0.257812 15.140625 0.484375 13.765625 0.484375 Z M 13.765625 0.484375 "/></g></g><g style="fill:#1f28f0;fill-opacity:1;"><g transform="translate(229.35794, 309.117613)"><path style="stroke:none" d="M 8.859375 0 L 8.859375 -0.671875 C 9.660156 -0.929688 10.179688 -1.46875 10.421875 -2.28125 C 10.660156 -3.101562 10.78125 -4.378906 10.78125 -6.109375 L 10.734375 -15.4375 L 3.609375 -28.34375 C 2.804688 -29.84375 2.023438 -30.929688 1.265625 -31.609375 C 0.515625 -32.285156 -0.128906 -32.75 -0.671875 -33 L -0.671875 -33.671875 L 8.328125 -33.671875 L 8.328125 -33 C 7.523438 -32.75 7.289062 -32.285156 7.625 -31.609375 C 7.957031 -30.929688 8.539062 -29.84375 9.375 -28.34375 L 15.734375 -16.890625 L 22.21875 -28.34375 C 23.0625 -29.84375 23.429688 -30.945312 23.328125 -31.65625 C 23.234375 -32.363281 22.691406 -32.8125 21.703125 -33 L 21.703125 -33.671875 L 27.90625 -33.671875 L 27.90625 -33 C 27.195312 -32.75 26.441406 -32.285156 25.640625 -31.609375 C 24.835938 -30.929688 24.019531 -29.84375 23.1875 -28.34375 L 15.921875 -15.390625 L 15.921875 -6.109375 C 15.921875 -4.378906 16.039062 -3.101562 16.28125 -2.28125 C 16.519531 -1.46875 17.039062 -0.929688 17.84375 -0.671875 L 17.84375 0 Z M 8.859375 0 "/></g></g><g style="fill:#1f28f0;fill-opacity:1;"><g transform="translate(255.958812, 309.117613)"><path style="stroke:none" d="M 27.609375 0.390625 L 5.046875 -28.09375 L 5.046875 -9 C 5.046875 -7.039062 5.175781 -5.5 5.4375 -4.375 C 5.695312 -3.25 6.097656 -2.414062 6.640625 -1.875 C 7.179688 -1.332031 7.867188 -0.929688 8.703125 -0.671875 L 8.703125 0 L 2.265625 0 L 2.265625 -0.671875 C 3.066406 -0.929688 3.585938 -1.46875 3.828125 -2.28125 C 4.066406 -3.101562 4.1875 -4.378906 4.1875 -6.109375 L 4.1875 -27.5625 C 4.1875 -29.300781 4.023438 -30.578125 3.703125 -31.390625 C 3.378906 -32.210938 2.707031 -32.75 1.6875 -33 L 1.6875 -33.671875 L 7.125 -33.671875 L 27.328125 -8.375 L 27.328125 -24.6875 C 27.328125 -26.632812 27.195312 -28.171875 26.9375 -29.296875 C 26.6875 -30.421875 26.285156 -31.253906 25.734375 -31.796875 C 25.191406 -32.347656 24.503906 -32.75 23.671875 -33 L 23.671875 -33.671875 L 30.171875 -33.671875 L 30.171875 -33 C 29.367188 -32.75 28.84375 -32.210938 28.59375 -31.390625 C 28.351562 -30.578125 28.234375 -29.300781 28.234375 -27.5625 L 28.234375 0.390625 Z M 27.609375 0.390625 "/></g></g><g style="fill:#1f28f0;fill-opacity:1;"><g transform="translate(287.321877, 309.117613)"><path style="stroke:none" d="M 21.171875 0.484375 C 17.347656 0.484375 14.039062 -0.164062 11.25 -1.46875 C 8.46875 -2.769531 6.328125 -4.660156 4.828125 -7.140625 C 3.335938 -9.628906 2.59375 -12.671875 2.59375 -16.265625 C 2.59375 -18.703125 3.050781 -20.984375 3.96875 -23.109375 C 4.882812 -25.242188 6.195312 -27.128906 7.90625 -28.765625 C 9.625 -30.398438 11.675781 -31.679688 14.0625 -32.609375 C 16.457031 -33.546875 19.128906 -34.015625 22.078125 -34.015625 C 23.265625 -34.015625 24.554688 -33.929688 25.953125 -33.765625 C 27.347656 -33.609375 28.675781 -33.359375 29.9375 -33.015625 C 31.207031 -32.679688 32.257812 -32.226562 33.09375 -31.65625 L 33.296875 -25.3125 L 32.71875 -25.15625 C 32.070312 -26.820312 31.125 -28.238281 29.875 -29.40625 C 28.625 -30.582031 27.21875 -31.488281 25.65625 -32.125 C 24.101562 -32.769531 22.492188 -33.09375 20.828125 -33.09375 C 18.265625 -33.09375 15.992188 -32.53125 14.015625 -31.40625 C 12.046875 -30.289062 10.5 -28.648438 9.375 -26.484375 C 8.257812 -24.316406 7.703125 -21.628906 7.703125 -18.421875 C 7.703125 -16.117188 8.035156 -13.890625 8.703125 -11.734375 C 9.378906 -9.585938 10.347656 -7.671875 11.609375 -5.984375 C 12.878906 -4.304688 14.4375 -2.976562 16.28125 -2 C 18.125 -1.019531 20.21875 -0.53125 22.5625 -0.53125 C 25.257812 -0.53125 27.519531 -1.28125 29.34375 -2.78125 C 31.175781 -4.289062 32.523438 -6.296875 33.390625 -8.796875 L 34.015625 -8.703125 L 33.25 -1.828125 C 31.957031 -1.253906 30.359375 -0.722656 28.453125 -0.234375 C 26.546875 0.242188 24.117188 0.484375 21.171875 0.484375 Z M 21.171875 0.484375 "/></g></g></g></svg>