<svg xmlns="http://www.w3.org/2000/svg" xmlns:xlink="http://www.w3.org/1999/xlink" width="500" zoomAndPan="magnify" viewBox="0 0 375 374.999991" height="500" preserveAspectRatio="xMidYMid meet" version="1.2"><defs><clipPath id="af77f81b95"><path d="M 16.992188 144.175781 L 106.992188 144.175781 L 106.992188 206.425781 L 16.992188 206.425781 Z M 16.992188 144.175781 "/></clipPath></defs><g id="ed579d9270"><g clip-rule="nonzero" clip-path="url(#af77f81b95)"><path style=" stroke:none;fill-rule:nonzero;fill:#1f28f0;fill-opacity:1;" d="M 81.933594 203.472656 L 78.210938 203.472656 C 76.753906 200.332031 73.558594 198.222656 70.105469 198.222656 C 69.660156 198.222656 69.214844 198.257812 68.78125 198.335938 C 67.226562 196.28125 65.238281 194.960938 63.09375 194.558594 L 63.09375 180.378906 C 63.972656 180.539062 64.859375 180.621094 65.738281 180.621094 C 69.59375 180.621094 73.355469 179.109375 76.152344 176.3125 C 79.917969 172.546875 81.359375 167.019531 79.902344 161.890625 C 79.765625 161.398438 79.378906 161.015625 78.890625 160.875 C 73.753906 159.421875 68.230469 160.855469 64.464844 164.621094 C 63.964844 165.121094 63.507812 165.652344 63.09375 166.203125 L 63.09375 163.171875 C 66.128906 161.148438 67.980469 157.722656 67.980469 154.039062 C 67.980469 150.058594 65.816406 146.382812 62.339844 144.441406 C 61.894531 144.195312 61.351562 144.195312 60.910156 144.445312 C 57.429688 146.386719 55.269531 150.0625 55.269531 154.039062 C 55.269531 157.722656 57.121094 161.144531 60.152344 163.171875 L 60.152344 173.644531 C 59.996094 173.464844 59.835938 173.289062 59.664062 173.121094 C 56.664062 170.125 52.265625 168.976562 48.175781 170.136719 C 47.6875 170.277344 47.304688 170.65625 47.164062 171.148438 C 46.003906 175.238281 47.148438 179.636719 50.148438 182.636719 C 52.375 184.863281 55.371094 186.066406 58.433594 186.066406 C 59.003906 186.066406 59.582031 186.023438 60.152344 185.9375 L 60.152344 194.558594 C 58.011719 194.960938 56.023438 196.28125 54.472656 198.335938 C 54.03125 198.257812 53.589844 198.222656 53.144531 198.222656 C 49.691406 198.222656 46.496094 200.332031 45.039062 203.472656 L 41.433594 203.472656 C 40.621094 203.472656 39.960938 204.136719 39.960938 204.945312 C 39.960938 205.757812 40.621094 206.414062 41.433594 206.414062 L 81.933594 206.414062 C 82.742188 206.414062 83.402344 205.757812 83.402344 204.945312 C 83.402344 204.136719 82.742188 203.472656 81.933594 203.472656 Z M 66.542969 166.699219 C 69.359375 163.886719 73.402344 162.699219 77.273438 163.507812 C 78.078125 167.375 76.890625 171.417969 74.074219 174.234375 C 71.257812 177.050781 67.214844 178.238281 63.34375 177.4375 C 62.539062 173.5625 63.726562 169.515625 66.542969 166.699219 Z M 58.210938 154.039062 C 58.210938 151.410156 59.5 148.960938 61.625 147.464844 C 63.75 148.960938 65.039062 151.40625 65.039062 154.039062 C 65.039062 156.671875 63.75 159.121094 61.625 160.617188 C 59.5 159.121094 58.210938 156.671875 58.210938 154.039062 Z M 60.011719 182.984375 C 57.195312 183.5 54.277344 182.609375 52.226562 180.554688 C 50.179688 178.511719 49.285156 175.59375 49.800781 172.773438 C 52.621094 172.257812 55.539062 173.15625 57.585938 175.199219 C 59.242188 176.851562 60.140625 179.070312 60.152344 181.34375 L 60.152344 181.449219 C 60.152344 181.960938 60.105469 182.472656 60.011719 182.984375 Z M 53.144531 201.160156 C 53.652344 201.160156 54.152344 201.242188 54.640625 201.40625 C 55.285156 201.613281 55.988281 201.363281 56.347656 200.792969 C 57.722656 198.609375 59.621094 197.363281 61.566406 197.363281 C 61.585938 197.363281 61.601562 197.363281 61.625 197.363281 C 61.644531 197.363281 61.664062 197.363281 61.683594 197.363281 C 63.625 197.363281 65.527344 198.609375 66.910156 200.792969 C 67.265625 201.363281 67.972656 201.613281 68.609375 201.40625 C 69.097656 201.242188 69.601562 201.160156 70.105469 201.160156 C 71.691406 201.160156 73.550781 201.949219 74.773438 203.472656 L 48.476562 203.472656 C 49.703125 201.949219 51.558594 201.160156 53.144531 201.160156 Z M 35.496094 181.726562 C 37.199219 185.808594 39.855469 189.476562 43.320312 192.410156 C 43.597656 192.644531 43.933594 192.761719 44.269531 192.761719 C 44.6875 192.761719 45.101562 192.582031 45.390625 192.242188 C 45.917969 191.621094 45.839844 190.691406 45.222656 190.167969 C 39.515625 185.332031 36.246094 178.28125 36.246094 170.808594 C 36.246094 163.34375 39.515625 156.292969 45.222656 151.460938 C 45.839844 150.933594 45.917969 150.007812 45.390625 149.386719 C 44.867188 148.765625 43.9375 148.691406 43.320312 149.21875 C 39.859375 152.152344 37.203125 155.816406 35.5 159.894531 L 31.847656 159.894531 L 28.851562 154.699219 C 29.519531 153.921875 29.929688 152.914062 29.929688 151.808594 C 29.929688 149.355469 27.9375 147.363281 25.484375 147.363281 C 23.035156 147.363281 21.039062 149.355469 21.039062 151.808594 C 21.039062 154.257812 23.035156 156.25 25.484375 156.25 C 25.765625 156.25 26.039062 156.222656 26.304688 156.171875 L 29.726562 162.097656 C 29.988281 162.554688 30.472656 162.835938 31 162.835938 L 34.453125 162.835938 C 33.835938 164.9375 33.460938 167.117188 33.34375 169.339844 L 25.597656 169.339844 C 24.992188 167.613281 23.34375 166.367188 21.40625 166.367188 C 18.953125 166.367188 16.957031 168.359375 16.957031 170.808594 C 16.957031 173.261719 18.953125 175.253906 21.40625 175.253906 C 23.34375 175.253906 24.992188 174.011719 25.597656 172.28125 L 33.34375 172.28125 C 33.460938 174.503906 33.835938 176.6875 34.453125 178.789062 L 31 178.789062 C 30.472656 178.789062 29.988281 179.070312 29.726562 179.523438 L 26.304688 185.449219 C 26.039062 185.398438 25.765625 185.371094 25.484375 185.371094 C 23.035156 185.371094 21.039062 187.367188 21.039062 189.816406 C 21.039062 192.265625 23.035156 194.257812 25.484375 194.257812 C 27.933594 194.257812 29.929688 192.265625 29.929688 189.816406 C 29.929688 188.710938 29.519531 187.699219 28.851562 186.921875 L 31.847656 181.726562 Z M 23.980469 151.808594 C 23.980469 150.976562 24.65625 150.304688 25.484375 150.304688 C 26.3125 150.304688 26.988281 150.976562 26.988281 151.808594 C 26.988281 152.636719 26.3125 153.3125 25.484375 153.3125 C 24.65625 153.3125 23.980469 152.636719 23.980469 151.808594 Z M 21.40625 172.3125 C 20.574219 172.3125 19.898438 171.640625 19.898438 170.8125 C 19.898438 169.984375 20.574219 169.308594 21.40625 169.308594 C 22.242188 169.308594 22.914062 169.984375 22.914062 170.8125 C 22.914062 171.640625 22.238281 172.3125 21.40625 172.3125 Z M 25.484375 191.320312 C 24.65625 191.320312 23.980469 190.644531 23.980469 189.816406 C 23.980469 188.984375 24.65625 188.308594 25.484375 188.308594 C 26.3125 188.308594 26.988281 188.984375 26.988281 189.816406 C 26.988281 190.644531 26.3125 191.320312 25.484375 191.320312 Z M 97.617188 172.28125 C 98.226562 174.011719 99.875 175.253906 101.808594 175.253906 C 104.261719 175.253906 106.253906 173.261719 106.253906 170.8125 C 106.253906 168.359375 104.261719 166.367188 101.808594 166.367188 C 99.875 166.367188 98.226562 167.613281 97.617188 169.34375 L 89.871094 169.34375 C 89.757812 167.117188 89.378906 164.9375 88.761719 162.835938 L 92.210938 162.835938 C 92.738281 162.835938 93.222656 162.554688 93.484375 162.097656 L 96.90625 156.171875 C 97.171875 156.222656 97.449219 156.25 97.734375 156.25 C 100.183594 156.25 102.175781 154.257812 102.175781 151.808594 C 102.175781 149.355469 100.183594 147.363281 97.734375 147.363281 C 95.28125 147.363281 93.289062 149.355469 93.289062 151.808594 C 93.289062 152.910156 93.695312 153.921875 94.363281 154.699219 L 91.363281 159.894531 L 87.71875 159.894531 C 86.015625 155.816406 83.359375 152.152344 79.894531 149.21875 C 79.277344 148.691406 78.347656 148.765625 77.828125 149.386719 C 77.300781 150.007812 77.375 150.933594 77.996094 151.460938 C 83.699219 156.292969 86.96875 163.34375 86.96875 170.808594 C 86.96875 178.273438 83.699219 185.332031 77.996094 190.167969 C 77.375 190.691406 77.300781 191.621094 77.828125 192.242188 C 78.117188 192.582031 78.53125 192.761719 78.945312 192.761719 C 79.28125 192.761719 79.621094 192.644531 79.894531 192.410156 C 83.359375 189.476562 86.015625 185.808594 87.722656 181.726562 L 91.363281 181.726562 L 94.363281 186.925781 C 93.695312 187.703125 93.289062 188.710938 93.289062 189.816406 C 93.289062 192.265625 95.28125 194.257812 97.734375 194.257812 C 100.183594 194.257812 102.175781 192.265625 102.175781 189.816406 C 102.175781 187.367188 100.183594 185.371094 97.734375 185.371094 C 97.449219 185.371094 97.171875 185.398438 96.90625 185.449219 L 93.484375 179.523438 C 93.222656 179.070312 92.738281 178.789062 92.210938 178.789062 L 88.765625 178.789062 C 89.378906 176.6875 89.757812 174.503906 89.871094 172.28125 Z M 97.734375 150.304688 C 98.5625 150.304688 99.238281 150.976562 99.238281 151.808594 C 99.238281 152.636719 98.5625 153.3125 97.734375 153.3125 C 96.902344 153.3125 96.230469 152.636719 96.230469 151.808594 C 96.230469 150.976562 96.902344 150.304688 97.734375 150.304688 Z M 99.238281 189.816406 C 99.238281 190.644531 98.5625 191.320312 97.734375 191.320312 C 96.902344 191.320312 96.230469 190.644531 96.230469 189.816406 C 96.230469 188.984375 96.902344 188.308594 97.734375 188.308594 C 98.5625 188.308594 99.238281 188.984375 99.238281 189.816406 Z M 101.808594 169.308594 C 102.640625 169.308594 103.3125 169.984375 103.3125 170.8125 C 103.3125 171.640625 102.640625 172.3125 101.808594 172.3125 C 100.980469 172.3125 100.304688 171.640625 100.304688 170.8125 C 100.304688 169.984375 100.980469 169.308594 101.808594 169.308594 Z M 101.808594 169.308594 "/></g><g style="fill:#1f28f0;fill-opacity:1;"><g transform="translate(106.411214, 191.359211)"><path style="stroke:none" d="M 2.0625 0 L 2.0625 -0.609375 C 2.789062 -0.847656 3.265625 -1.335938 3.484375 -2.078125 C 3.703125 -2.828125 3.8125 -3.988281 3.8125 -5.5625 L 3.8125 -25.109375 C 3.8125 -26.679688 3.703125 -27.835938 3.484375 -28.578125 C 3.265625 -29.328125 2.789062 -29.820312 2.0625 -30.0625 L 2.0625 -30.671875 L 23.21875 -30.671875 L 23.53125 -25.8125 L 22.953125 -25.671875 C 22.140625 -27.222656 21.15625 -28.3125 20 -28.9375 C 18.84375 -29.5625 17.1875 -29.875 15.03125 -29.875 L 8.453125 -29.875 L 8.453125 -17.171875 L 12 -17.171875 C 13.78125 -17.171875 15.179688 -17.285156 16.203125 -17.515625 C 17.234375 -17.753906 17.992188 -18.117188 18.484375 -18.609375 C 18.984375 -19.109375 19.347656 -19.738281 19.578125 -20.5 L 20.203125 -20.5 L 20.203125 -13.0625 L 19.578125 -13.0625 C 19.347656 -13.8125 18.984375 -14.4375 18.484375 -14.9375 C 17.992188 -15.4375 17.234375 -15.800781 16.203125 -16.03125 C 15.179688 -16.269531 13.78125 -16.390625 12 -16.390625 L 8.453125 -16.390625 L 8.453125 -5.5625 C 8.453125 -3.988281 8.5625 -2.828125 8.78125 -2.078125 C 9 -1.335938 9.472656 -0.847656 10.203125 -0.609375 L 10.203125 0 Z M 2.0625 0 "/></g></g><g style="fill:#1f28f0;fill-opacity:1;"><g transform="translate(130.549519, 191.359211)"><path style="stroke:none" d="M 2.0625 0 L 2.0625 -0.609375 C 2.789062 -0.847656 3.265625 -1.335938 3.484375 -2.078125 C 3.703125 -2.828125 3.8125 -3.988281 3.8125 -5.5625 L 3.8125 -25.109375 C 3.8125 -26.679688 3.703125 -27.835938 3.484375 -28.578125 C 3.265625 -29.328125 2.789062 -29.820312 2.0625 -30.0625 L 2.0625 -30.671875 L 23.09375 -30.671875 L 23.578125 -24.484375 L 23 -24.359375 C 22.125 -26.523438 20.945312 -28 19.46875 -28.78125 C 18 -29.570312 16.035156 -29.96875 13.578125 -29.96875 L 8.453125 -29.96875 L 8.453125 -16.828125 L 12.65625 -16.828125 C 14.4375 -16.828125 15.835938 -16.941406 16.859375 -17.171875 C 17.890625 -17.410156 18.648438 -17.773438 19.140625 -18.265625 C 19.640625 -18.765625 20.003906 -19.394531 20.234375 -20.15625 L 20.859375 -20.15625 L 20.859375 -12.796875 L 20.234375 -12.796875 C 20.003906 -13.554688 19.640625 -14.179688 19.140625 -14.671875 C 18.648438 -15.171875 17.890625 -15.535156 16.859375 -15.765625 C 15.835938 -16.003906 14.4375 -16.125 12.65625 -16.125 L 8.453125 -16.125 L 8.453125 -2.890625 C 8.453125 -1.429688 9.179688 -0.703125 10.640625 -0.703125 L 14.859375 -0.703125 C 17.078125 -0.703125 18.941406 -1.109375 20.453125 -1.921875 C 21.972656 -2.742188 23.144531 -4.265625 23.96875 -6.484375 L 24.53125 -6.390625 L 24.234375 0 Z M 2.0625 0 "/></g></g><g style="fill:#1f28f0;fill-opacity:1;"><g transform="translate(156.177306, 191.359211)"><path style="stroke:none" d="M 24.359375 0.3125 C 23.160156 0.3125 22.203125 0.0390625 21.484375 -0.5 C 20.773438 -1.039062 20.148438 -1.863281 19.609375 -2.96875 C 19.066406 -4.082031 18.445312 -5.488281 17.75 -7.1875 C 17.101562 -8.789062 16.5625 -10.140625 16.125 -11.234375 C 15.6875 -12.328125 15.257812 -13.203125 14.84375 -13.859375 C 14.4375 -14.523438 13.941406 -15.003906 13.359375 -15.296875 C 12.773438 -15.585938 12.003906 -15.734375 11.046875 -15.734375 L 8.453125 -15.734375 L 8.453125 -5.5625 C 8.453125 -3.988281 8.5625 -2.828125 8.78125 -2.078125 C 9 -1.335938 9.472656 -0.847656 10.203125 -0.609375 L 10.203125 0 L 2.0625 0 L 2.0625 -0.609375 C 2.789062 -0.847656 3.265625 -1.335938 3.484375 -2.078125 C 3.703125 -2.828125 3.8125 -3.988281 3.8125 -5.5625 L 3.8125 -25.109375 C 3.8125 -26.679688 3.703125 -27.835938 3.484375 -28.578125 C 3.265625 -29.328125 2.789062 -29.820312 2.0625 -30.0625 L 2.0625 -30.671875 L 11.265625 -30.671875 C 13.660156 -30.671875 15.609375 -30.472656 17.109375 -30.078125 C 18.609375 -29.679688 19.765625 -29.15625 20.578125 -28.5 C 21.398438 -27.84375 21.972656 -27.085938 22.296875 -26.234375 C 22.617188 -25.390625 22.78125 -24.53125 22.78125 -23.65625 C 22.78125 -21.644531 22.078125 -19.9375 20.671875 -18.53125 C 19.273438 -17.132812 17.113281 -16.257812 14.1875 -15.90625 C 15.414062 -15.757812 16.429688 -15.507812 17.234375 -15.15625 C 18.035156 -14.8125 18.722656 -14.304688 19.296875 -13.640625 C 19.867188 -12.984375 20.390625 -12.148438 20.859375 -11.140625 C 21.328125 -10.140625 21.851562 -8.910156 22.4375 -7.453125 C 23.21875 -5.523438 23.828125 -4.0625 24.265625 -3.0625 C 24.703125 -2.070312 25.109375 -1.40625 25.484375 -1.0625 C 25.867188 -0.726562 26.328125 -0.5625 26.859375 -0.5625 C 26.972656 -0.5625 27.082031 -0.5625 27.1875 -0.5625 C 27.289062 -0.5625 27.398438 -0.578125 27.515625 -0.609375 L 27.515625 0 C 27.015625 0.113281 26.457031 0.191406 25.84375 0.234375 C 25.226562 0.285156 24.734375 0.3125 24.359375 0.3125 Z M 8.453125 -16.4375 L 11.265625 -16.4375 C 12.921875 -16.4375 14.253906 -16.710938 15.265625 -17.265625 C 16.273438 -17.816406 17.003906 -18.566406 17.453125 -19.515625 C 17.910156 -20.460938 18.140625 -21.492188 18.140625 -22.609375 C 18.140625 -23.804688 17.875 -24.96875 17.34375 -26.09375 C 16.820312 -27.21875 15.988281 -28.144531 14.84375 -28.875 C 13.707031 -29.601562 12.222656 -29.96875 10.390625 -29.96875 C 9.773438 -29.96875 9.128906 -29.925781 8.453125 -29.84375 Z M 8.453125 -16.4375 "/></g></g><g style="fill:#1f28f0;fill-opacity:1;"><g transform="translate(182.812683, 191.359211)"><path style="stroke:none" d="M 1.84375 0 L 1.84375 -0.609375 C 2.570312 -0.847656 3.046875 -1.335938 3.265625 -2.078125 C 3.484375 -2.828125 3.59375 -3.988281 3.59375 -5.5625 L 3.59375 -22.46875 C 3.59375 -24.25 3.484375 -25.648438 3.265625 -26.671875 C 3.046875 -27.703125 2.71875 -28.460938 2.28125 -28.953125 C 1.84375 -29.453125 1.285156 -29.820312 0.609375 -30.0625 L 0.609375 -30.671875 L 7.1875 -30.671875 L 18 -12.703125 L 28.296875 -30.671875 L 34.53125 -30.671875 L 34.53125 -30.0625 C 33.851562 -29.820312 33.296875 -29.453125 32.859375 -28.953125 C 32.421875 -28.460938 32.09375 -27.703125 31.875 -26.671875 C 31.65625 -25.648438 31.546875 -24.25 31.546875 -22.46875 L 31.546875 -5.5625 C 31.546875 -3.988281 31.65625 -2.828125 31.875 -2.078125 C 32.09375 -1.335938 32.566406 -0.847656 33.296875 -0.609375 L 33.296875 0 L 25.140625 0 L 25.140625 -0.609375 C 25.878906 -0.847656 26.359375 -1.335938 26.578125 -2.078125 C 26.796875 -2.828125 26.90625 -3.988281 26.90625 -5.5625 L 26.90625 -26.765625 L 16.390625 -8.328125 L 15.375 -8.328125 L 4.375 -26.375 L 4.375 -8.1875 C 4.375 -6.40625 4.488281 -5.003906 4.71875 -3.984375 C 4.957031 -2.960938 5.328125 -2.203125 5.828125 -1.703125 C 6.328125 -1.210938 6.957031 -0.847656 7.71875 -0.609375 L 7.71875 0 Z M 1.84375 0 "/></g></g><g style="fill:#1f28f0;fill-opacity:1;"><g transform="translate(218.954473, 191.359211)"><path style="stroke:none" d="M 2.0625 0 L 2.0625 -0.609375 C 2.789062 -0.847656 3.265625 -1.335938 3.484375 -2.078125 C 3.703125 -2.828125 3.8125 -3.988281 3.8125 -5.5625 L 3.8125 -25.109375 C 3.8125 -26.679688 3.703125 -27.835938 3.484375 -28.578125 C 3.265625 -29.328125 2.789062 -29.820312 2.0625 -30.0625 L 2.0625 -30.671875 L 23.09375 -30.671875 L 23.578125 -24.484375 L 23 -24.359375 C 22.125 -26.523438 20.945312 -28 19.46875 -28.78125 C 18 -29.570312 16.035156 -29.96875 13.578125 -29.96875 L 8.453125 -29.96875 L 8.453125 -16.828125 L 12.65625 -16.828125 C 14.4375 -16.828125 15.835938 -16.941406 16.859375 -17.171875 C 17.890625 -17.410156 18.648438 -17.773438 19.140625 -18.265625 C 19.640625 -18.765625 20.003906 -19.394531 20.234375 -20.15625 L 20.859375 -20.15625 L 20.859375 -12.796875 L 20.234375 -12.796875 C 20.003906 -13.554688 19.640625 -14.179688 19.140625 -14.671875 C 18.648438 -15.171875 17.890625 -15.535156 16.859375 -15.765625 C 15.835938 -16.003906 14.4375 -16.125 12.65625 -16.125 L 8.453125 -16.125 L 8.453125 -2.890625 C 8.453125 -1.429688 9.179688 -0.703125 10.640625 -0.703125 L 14.859375 -0.703125 C 17.078125 -0.703125 18.941406 -1.109375 20.453125 -1.921875 C 21.972656 -2.742188 23.144531 -4.265625 23.96875 -6.484375 L 24.53125 -6.390625 L 24.234375 0 Z M 2.0625 0 "/></g></g><g style="fill:#1f28f0;fill-opacity:1;"><g transform="translate(244.582261, 191.359211)"><path style="stroke:none" d="M 12.53125 0.4375 C 10.28125 0.4375 8.191406 0.125 6.265625 -0.5 C 4.335938 -1.132812 2.816406 -1.859375 1.703125 -2.671875 L 1.53125 -9.25 L 2.109375 -9.328125 C 2.710938 -7.660156 3.546875 -6.160156 4.609375 -4.828125 C 5.679688 -3.503906 6.976562 -2.445312 8.5 -1.65625 C 10.019531 -0.875 11.742188 -0.484375 13.671875 -0.484375 C 14.691406 -0.484375 15.640625 -0.691406 16.515625 -1.109375 C 17.390625 -1.535156 18.101562 -2.15625 18.65625 -2.96875 C 19.21875 -3.789062 19.5 -4.800781 19.5 -6 C 19.5 -7.082031 19.191406 -8.023438 18.578125 -8.828125 C 17.960938 -9.628906 17.179688 -10.328125 16.234375 -10.921875 C 15.285156 -11.523438 14.285156 -12.050781 13.234375 -12.5 C 12.179688 -12.957031 11.21875 -13.363281 10.34375 -13.71875 C 8.851562 -14.351562 7.476562 -14.992188 6.21875 -15.640625 C 4.96875 -16.285156 3.960938 -17.109375 3.203125 -18.109375 C 2.441406 -19.117188 2.0625 -20.472656 2.0625 -22.171875 C 2.0625 -24.890625 3.078125 -27.035156 5.109375 -28.609375 C 7.140625 -30.179688 9.875 -30.96875 13.3125 -30.96875 C 14.945312 -30.96875 16.472656 -30.804688 17.890625 -30.484375 C 19.304688 -30.171875 20.585938 -29.722656 21.734375 -29.140625 L 21.90625 -23.4375 L 21.421875 -23.265625 C 20.515625 -25.515625 19.191406 -27.238281 17.453125 -28.4375 C 15.722656 -29.632812 13.789062 -30.234375 11.65625 -30.234375 C 9.90625 -30.234375 8.421875 -29.742188 7.203125 -28.765625 C 5.992188 -27.785156 5.390625 -26.429688 5.390625 -24.703125 C 5.390625 -23.742188 5.628906 -22.90625 6.109375 -22.1875 C 6.585938 -21.476562 7.226562 -20.859375 8.03125 -20.328125 C 8.84375 -19.804688 9.707031 -19.347656 10.625 -18.953125 C 11.539062 -18.554688 12.4375 -18.179688 13.3125 -17.828125 C 14.425781 -17.390625 15.554688 -16.921875 16.703125 -16.421875 C 17.859375 -15.929688 18.921875 -15.347656 19.890625 -14.671875 C 20.859375 -14.003906 21.632812 -13.203125 22.21875 -12.265625 C 22.800781 -11.328125 23.09375 -10.203125 23.09375 -8.890625 C 23.09375 -7.398438 22.785156 -6.070312 22.171875 -4.90625 C 21.554688 -3.738281 20.738281 -2.757812 19.71875 -1.96875 C 18.695312 -1.175781 17.554688 -0.578125 16.296875 -0.171875 C 15.046875 0.234375 13.789062 0.4375 12.53125 0.4375 Z M 12.53125 0.4375 "/></g></g><g style="fill:#1f28f0;fill-opacity:1;"><g transform="translate(268.370101, 191.359211)"><path style="stroke:none" d="M 8.0625 0 L 8.0625 -0.609375 C 8.789062 -0.847656 9.265625 -1.335938 9.484375 -2.078125 C 9.703125 -2.828125 9.8125 -3.988281 9.8125 -5.5625 L 9.765625 -14.0625 L 3.28125 -25.8125 C 2.550781 -27.175781 1.84375 -28.164062 1.15625 -28.78125 C 0.46875 -29.394531 -0.117188 -29.820312 -0.609375 -30.0625 L -0.609375 -30.671875 L 7.578125 -30.671875 L 7.578125 -30.0625 C 6.847656 -29.820312 6.632812 -29.394531 6.9375 -28.78125 C 7.25 -28.164062 7.785156 -27.175781 8.546875 -25.8125 L 14.328125 -15.375 L 20.234375 -25.8125 C 20.992188 -27.175781 21.332031 -28.179688 21.25 -28.828125 C 21.164062 -29.472656 20.671875 -29.882812 19.765625 -30.0625 L 19.765625 -30.671875 L 25.40625 -30.671875 L 25.40625 -30.0625 C 24.769531 -29.820312 24.082031 -29.394531 23.34375 -28.78125 C 22.613281 -28.164062 21.875 -27.175781 21.125 -25.8125 L 14.5 -14.015625 L 14.5 -5.5625 C 14.5 -3.988281 14.609375 -2.828125 14.828125 -2.078125 C 15.046875 -1.335938 15.519531 -0.847656 16.25 -0.609375 L 16.25 0 Z M 8.0625 0 "/></g></g><g style="fill:#1f28f0;fill-opacity:1;"><g transform="translate(292.596029, 191.359211)"><path style="stroke:none" d="M 25.140625 0.34375 L 4.59375 -25.59375 L 4.59375 -8.1875 C 4.59375 -6.40625 4.707031 -5.003906 4.9375 -3.984375 C 5.175781 -2.960938 5.546875 -2.203125 6.046875 -1.703125 C 6.546875 -1.210938 7.175781 -0.847656 7.9375 -0.609375 L 7.9375 0 L 2.0625 0 L 2.0625 -0.609375 C 2.789062 -0.847656 3.265625 -1.335938 3.484375 -2.078125 C 3.703125 -2.828125 3.8125 -3.988281 3.8125 -5.5625 L 3.8125 -25.109375 C 3.8125 -26.679688 3.664062 -27.835938 3.375 -28.578125 C 3.082031 -29.328125 2.46875 -29.820312 1.53125 -30.0625 L 1.53125 -30.671875 L 6.484375 -30.671875 L 24.890625 -7.625 L 24.890625 -22.46875 C 24.890625 -24.25 24.769531 -25.648438 24.53125 -26.671875 C 24.300781 -27.703125 23.9375 -28.460938 23.4375 -28.953125 C 22.9375 -29.453125 22.3125 -29.820312 21.5625 -30.0625 L 21.5625 -30.671875 L 27.46875 -30.671875 L 27.46875 -30.0625 C 26.738281 -29.820312 26.265625 -29.328125 26.046875 -28.578125 C 25.828125 -27.835938 25.71875 -26.679688 25.71875 -25.109375 L 25.71875 0.34375 Z M 25.140625 0.34375 "/></g></g><g style="fill:#1f28f0;fill-opacity:1;"><g transform="translate(321.158977, 191.359211)"><path style="stroke:none" d="M 19.28125 0.4375 C 15.800781 0.4375 12.789062 -0.148438 10.25 -1.328125 C 7.707031 -2.515625 5.753906 -4.238281 4.390625 -6.5 C 3.035156 -8.769531 2.359375 -11.539062 2.359375 -14.8125 C 2.359375 -17.03125 2.773438 -19.109375 3.609375 -21.046875 C 4.441406 -22.992188 5.640625 -24.710938 7.203125 -26.203125 C 8.765625 -27.691406 10.632812 -28.859375 12.8125 -29.703125 C 14.988281 -30.546875 17.421875 -30.96875 20.109375 -30.96875 C 21.191406 -30.96875 22.367188 -30.894531 23.640625 -30.75 C 24.910156 -30.601562 26.117188 -30.378906 27.265625 -30.078125 C 28.421875 -29.773438 29.378906 -29.359375 30.140625 -28.828125 L 30.3125 -23.046875 L 29.796875 -22.90625 C 29.210938 -24.425781 28.347656 -25.71875 27.203125 -26.78125 C 26.066406 -27.851562 24.789062 -28.679688 23.375 -29.265625 C 21.957031 -29.847656 20.488281 -30.140625 18.96875 -30.140625 C 16.632812 -30.140625 14.566406 -29.628906 12.765625 -28.609375 C 10.972656 -27.585938 9.566406 -26.085938 8.546875 -24.109375 C 7.523438 -22.140625 7.015625 -19.695312 7.015625 -16.78125 C 7.015625 -14.675781 7.316406 -12.644531 7.921875 -10.6875 C 8.535156 -8.726562 9.421875 -6.984375 10.578125 -5.453125 C 11.734375 -3.921875 13.148438 -2.707031 14.828125 -1.8125 C 16.503906 -0.925781 18.410156 -0.484375 20.546875 -0.484375 C 23.003906 -0.484375 25.0625 -1.164062 26.71875 -2.53125 C 28.382812 -3.90625 29.613281 -5.734375 30.40625 -8.015625 L 30.96875 -7.9375 L 30.28125 -1.671875 C 29.101562 -1.140625 27.644531 -0.65625 25.90625 -0.21875 C 24.175781 0.21875 21.96875 0.4375 19.28125 0.4375 Z M 19.28125 0.4375 "/></g></g></g></svg>